  0
SECTION
  2
HEADER
  9
$ACADVER
  1
AC1009
  9
$INSBASE
 10
0.0
 20
0.0
 30
0.0
  9
$EXTMIN
 10
14.3444813573405394
 20
20.9852032874939596
 30
-0.4957693594318337
  9
$EXTMAX
 10
9314.3444813573405554
 20
5403.3905876188973707
 30
0.0000000000001116
  9
$LIMMIN
 10
0.0
 20
0.0
  9
$LIMMAX
 10
12.0
 20
9.0
  9
$ORTHOMODE
 70
     0
  9
$REGENMODE
 70
     1
  9
$FILLMODE
 70
     1
  9
$QTEXTMODE
 70
     0
  9
$MIRRTEXT
 70
     0
  9
$DRAGMODE
 70
     2
  9
$LTSCALE
 40
1.0
  9
$OSMODE
 70
    37
  9
$ATTMODE
 70
     1
  9
$TEXTSIZE
 40
0.2
  9
$TRACEWID
 40
0.05
  9
$TEXTSTYLE
  7
STANDARD
  9
$CLAYER
  8
0
  9
$CELTYPE
  6
BYLAYER
  9
$CECOLOR
 62
   256
  9
$DIMSCALE
 40
1.0
  9
$DIMASZ
 40
0.18
  9
$DIMEXO
 40
0.0625
  9
$DIMDLI
 40
0.38
  9
$DIMRND
 40
0.0
  9
$DIMDLE
 40
0.0
  9
$DIMEXE
 40
0.18
  9
$DIMTP
 40
0.0
  9
$DIMTM
 40
0.0
  9
$DIMTXT
 40
0.18
  9
$DIMCEN
 40
0.09
  9
$DIMTSZ
 40
0.0
  9
$DIMTOL
 70
     0
  9
$DIMLIM
 70
     0
  9
$DIMTIH
 70
     1
  9
$DIMTOH
 70
     1
  9
$DIMSE1
 70
     0
  9
$DIMSE2
 70
     0
  9
$DIMTAD
 70
     0
  9
$DIMZIN
 70
     0
  9
$DIMBLK
  1

  9
$DIMASO
 70
     1
  9
$DIMSHO
 70
     1
  9
$DIMPOST
  1

  9
$DIMAPOST
  1

  9
$DIMALT
 70
     0
  9
$DIMALTD
 70
     2
  9
$DIMALTF
 40
25.3999999999999986
  9
$DIMLFAC
 40
1.0
  9
$DIMTOFL
 70
     0
  9
$DIMTVP
 40
0.0
  9
$DIMTIX
 70
     0
  9
$DIMSOXD
 70
     0
  9
$DIMSAH
 70
     0
  9
$DIMBLK1
  1

  9
$DIMBLK2
  1

  9
$DIMSTYLE
  2
STANDARD
  9
$DIMCLRD
 70
     0
  9
$DIMCLRE
 70
     0
  9
$DIMCLRT
 70
     0
  9
$DIMTFAC
 40
1.0
  9
$DIMGAP
 40
0.09
  9
$LUNITS
 70
     2
  9
$LUPREC
 70
     4
  9
$SKETCHINC
 40
0.1
  9
$FILLETRAD
 40
0.0
  9
$AUNITS
 70
     0
  9
$AUPREC
 70
     0
  9
$MENU
  1
.
  9
$ELEVATION
 40
0.0
  9
$PELEVATION
 40
0.0
  9
$THICKNESS
 40
0.0
  9
$LIMCHECK
 70
     0
  9
$BLIPMODE
 70
     0
  9
$CHAMFERA
 40
0.0
  9
$CHAMFERB
 40
0.0
  9
$SKPOLY
 70
     0
  9
$TDCREATE
 40
2458484.5697569451294839
  9
$TDUPDATE
 40
2458484.5711689819581807
  9
$TDINDWG
 40
0.001412037
  9
$TDUSRTIMER
 40
0.001412037
  9
$USRTIMER
 70
     1
  9
$ANGBASE
 50
0.0
  9
$ANGDIR
 70
     0
  9
$PDMODE
 70
     0
  9
$PDSIZE
 40
0.0
  9
$PLINEWID
 40
0.0
  9
$COORDS
 70
     1
  9
$SPLFRAME
 70
     0
  9
$SPLINETYPE
 70
     6
  9
$SPLINESEGS
 70
     8
  9
$ATTDIA
 70
     1
  9
$ATTREQ
 70
     1
  9
$HANDLING
 70
     1
  9
$HANDSEED
  5
4F2
  9
$SURFTAB1
 70
     6
  9
$SURFTAB2
 70
     6
  9
$SURFTYPE
 70
     6
  9
$SURFU
 70
     6
  9
$SURFV
 70
     6
  9
$UCSNAME
  2

  9
$UCSORG
 10
0.0
 20
0.0
 30
0.0
  9
$UCSXDIR
 10
1.0
 20
0.0
 30
0.0
  9
$UCSYDIR
 10
0.0
 20
1.0
 30
0.0
  9
$PUCSNAME
  2

  9
$PUCSORG
 10
0.0
 20
0.0
 30
0.0
  9
$PUCSXDIR
 10
1.0
 20
0.0
 30
0.0
  9
$PUCSYDIR
 10
0.0
 20
1.0
 30
0.0
  9
$USERI1
 70
     0
  9
$USERI2
 70
     0
  9
$USERI3
 70
     0
  9
$USERI4
 70
     0
  9
$USERI5
 70
     0
  9
$USERR1
 40
0.0
  9
$USERR2
 40
0.0
  9
$USERR3
 40
0.0
  9
$USERR4
 40
0.0
  9
$USERR5
 40
0.0
  9
$WORLDVIEW
 70
     1
  9
$SHADEDGE
 70
     3
  9
$SHADEDIF
 70
    70
  9
$TILEMODE
 70
     1
  9
$MAXACTVP
 70
    64
  9
$PLIMCHECK
 70
     0
  9
$PEXTMIN
 10
0.0
 20
0.0
 30
0.0
  9
$PEXTMAX
 10
0.0
 20
0.0
 30
0.0
  9
$PLIMMIN
 10
0.0
 20
0.0
  9
$PLIMMAX
 10
12.0
 20
9.0
  9
$UNITMODE
 70
     0
  9
$VISRETAIN
 70
     1
  9
$PLINEGEN
 70
     0
  9
$PSLTSCALE
 70
     1
  0
ENDSEC
  0
SECTION
  2
TABLES
  0
TABLE
  2
VPORT
 70
     1
  0
VPORT
  2
*ACTIVE
 70
     0
 10
0.0
 20
0.0
 11
1.0
 21
1.0
 12
5971.9441866904708149
 22
2853.01832067391706
 13
0.0
 23
0.0
 14
0.5
 24
0.5
 15
0.5
 25
0.5
 16
0.0
 26
0.0
 36
1.0
 17
0.0
 27
0.0
 37
0.0
 40
4698.1553219180068481
 41
2.3419117647058818
 42
50.0
 43
0.0
 44
0.0
 50
0.0
 51
0.0
 71
     0
 72
  1000
 73
     1
 74
     3
 75
     0
 76
     1
 77
     0
 78
     0
  0
ENDTAB
  0
TABLE
  2
LTYPE
 70
     1
  0
LTYPE
  2
CONTINUOUS
 70
     0
  3
Solid line
 72
    65
 73
     0
 40
0.0
  0
ENDTAB
  0
TABLE
  2
LAYER
 70
    10
  0
LAYER
  2
0
 70
     0
 62
     7
  6
CONTINUOUS
  0
LAYER
  2
S_U_COLUMN_MAJOR
 70
     0
 62
     1
  6
CONTINUOUS
  0
LAYER
  2
S_C_COLUMN_MINOR
 70
     0
 62
     3
  6
CONTINUOUS
  0
LAYER
  2
S_J_JUNCTION
 70
     0
 62
   150
  6
CONTINUOUS
  0
LAYER
  2
S_B_GIRDER
 70
     0
 62
     2
  6
CONTINUOUS
  0
LAYER
  2
0-PRINTLESS
 70
     0
 62
    30
  6
CONTINUOUS
  0
LAYER
  2
0_REFERENCE
 70
     0
 62
   251
  6
CONTINUOUS
  0
LAYER
  2
S_D_GIRDER
 70
     0
 62
    31
  6
CONTINUOUS
  0
LAYER
  2
S_G_TRACK
 70
     0
 62
     4
  6
CONTINUOUS
  0
LAYER
  2
S_S_PURLIN_OF_ROOF
 70
     0
 62
     4
  6
CONTINUOUS
  0
ENDTAB
  0
TABLE
  2
STYLE
 70
     5
  0
STYLE
  2
STANDARD
 70
     0
 40
0.0
 41
1.0
 50
0.0
 71
     0
 42
0.2
  3
txt
  4

  0
STYLE
  2
ANNOTATIVE
 70
     0
 40
0.0
 41
1.0
 50
0.0
 71
     0
 42
0.2
  3
txt
  4

  0
STYLE
  2
MICROSOFT_YAHEI
 70
     0
 40
0.0
 41
1.0
 50
0.0
 71
     0
 42
1000.0
  3
txt
  4

  0
STYLE
  2
TSSD_REIN
 70
     0
 40
0.0
 41
0.7
 50
0.0
 71
     0
 42
500.0
  3
tssdeng.shx
  4
tssdchn.shx
  0
STYLE
  2
ÀŒÃÂ
 70
     0
 40
0.0
 41
1.0
 50
0.0
 71
     0
 42
2.5
  3
txt
  4

  0
ENDTAB
  0
TABLE
  2
VIEW
 70
     0
  0
ENDTAB
  0
TABLE
  2
UCS
 70
     0
  0
ENDTAB
  0
TABLE
  2
APPID
 70
    14
  0
APPID
  2
ACAD
 70
     0
  0
APPID
  2
ACADANNOPO
 70
     0
  0
APPID
  2
ACADANNOTATIVE
 70
     0
  0
APPID
  2
ACAD_DSTYLE_DIMJAG
 70
     0
  0
APPID
  2
ACAD_DSTYLE_DIMTALN
 70
     0
  0
APPID
  2
ACAD_MLEADERVER
 70
     0
  0
APPID
  2
ACAD_NAV_VCDISPLAY
 70
     0
  0
APPID
  2
ACAD_PSEXT
 70
     0
  0
APPID
  2
ACDBDYNAMICBLOCKGUID
 70
     0
  0
APPID
  2
ACAECLAYERSTANDARD
 70
     0
  0
APPID
  2
ACCMTRANSPARENCY
 70
     0
  0
APPID
  2
ACADSTRINGINFO
 70
     0
  0
APPID
  2
ACAD_DSTYLE_DIMBREAK
 70
     0
  0
APPID
  2
CONTENTBLOCKICON
 70
     0
  0
ENDTAB
  0
TABLE
  2
DIMSTYLE
 70
     8
  0
DIMSTYLE
  2
STANDARD
 70
     0
  3

  4

  5

  6

  7

 40
1.0
 41
0.18
 42
0.0625
 43
0.38
 44
0.18
 45
0.0
 46
0.0
 47
0.0
 48
0.0
140
0.18
141
0.09
142
0.0
143
25.3999999999999986
144
1.0
145
0.0
146
1.0
147
0.09
 71
     0
 72
     0
 73
     1
 74
     1
 75
     0
 76
     0
 77
     0
 78
     0
170
     0
171
     2
172
     0
173
     0
174
     0
175
     0
176
     0
177
     0
178
     0
  0
DIMSTYLE
  2
ANNOTATIVE
 70
     0
  3

  4

  5

  6

  7

 40
0.0
 41
0.18
 42
0.0625
 43
0.38
 44
0.18
 45
0.0
 46
0.0
 47
0.0
 48
0.0
140
0.18
141
0.09
142
0.0
143
25.3999999999999986
144
1.0
145
0.0
146
1.0
147
0.09
 71
     0
 72
     0
 73
     1
 74
     1
 75
     0
 76
     0
 77
     0
 78
     0
170
     0
171
     2
172
     0
173
     0
174
     0
175
     0
176
     0
177
     0
178
     0
  0
DIMSTYLE
  2
1_TO_100
 70
     0
  3

  4

  5
ARCHTICK
  6

  7

 40
1.0
 41
50.0
 42
100.0
 43
0.0
 44
0.0
 45
0.0
 46
0.0
 47
0.0
 48
0.0
140
200.0
141
1.0
142
0.0
143
0.03937007874016
144
1.0
145
0.0
146
1.0
147
50.0
 71
     0
 72
     0
 73
     0
 74
     0
 75
     0
 76
     0
 77
     2
 78
     8
170
     0
171
     3
172
     1
173
     0
174
     0
175
     0
176
   256
177
   256
178
   256
  0
DIMSTYLE
  2
1_TO_30
 70
     0
  3

  4

  5
ARCHTICK
  6

  7

 40
1.0
 41
15.0
 42
30.0
 43
0.0
 44
0.0
 45
0.0
 46
0.0
 47
0.0
 48
0.0
140
60.0
141
1.0
142
0.0
143
0.03937007874016
144
1.0
145
0.0
146
1.0
147
15.0
 71
     0
 72
     0
 73
     0
 74
     0
 75
     0
 76
     0
 77
     2
 78
     8
170
     0
171
     3
172
     1
173
     0
174
     0
175
     0
176
   256
177
   256
178
   256
  0
DIMSTYLE
  2
1_TO_10
 70
     0
  3

  4

  5
ARCHTICK
  6

  7

 40
1.0
 41
5.0
 42
10.0
 43
0.0
 44
0.0
 45
0.0
 46
0.0
 47
0.0
 48
0.0
140
20.0
141
1.0
142
0.0
143
0.03937007874016
144
1.0
145
0.0
146
1.0
147
5.0
 71
     0
 72
     0
 73
     0
 74
     0
 75
     0
 76
     0
 77
     2
 78
     8
170
     0
171
     3
172
     1
173
     0
174
     0
175
     0
176
   256
177
   256
178
   256
  0
DIMSTYLE
  2
1_TO_5
 70
     0
  3

  4

  5
ARCHTICK
  6

  7

 40
1.0
 41
2.5
 42
5.0
 43
0.0
 44
0.0
 45
0.0
 46
0.0
 47
0.0
 48
0.0
140
10.0
141
1.0
142
0.0
143
0.03937007874016
144
1.0
145
0.0
146
1.0
147
2.5
 71
     0
 72
     0
 73
     0
 74
     0
 75
     0
 76
     0
 77
     2
 78
     8
170
     0
171
     3
172
     1
173
     0
174
     0
175
     0
176
   256
177
   256
178
   256
  0
DIMSTYLE
  2
1-5
 70
     0
  3

  4

  5
ARCHTICK
  6

  7

 40
1.0
 41
3.5
 42
10.5
 43
0.0
 44
8.75
 45
0.0
 46
0.0
 47
0.0
 48
0.0
140
10.4124999999999996
141
0.09
142
0.0
143
25.3999999999999986
144
1.0
145
0.0
146
1.0
147
4.4187500000000011
 71
     0
 72
     0
 73
     0
 74
     0
 75
     0
 76
     0
 77
     1
 78
     0
170
     0
171
     2
172
     1
173
     0
174
     1
175
     0
176
     0
177
     0
178
     7
  0
DIMSTYLE
  2
1-10
 70
     0
  3

  4

  5
ARCHTICK
  6

  7

 40
1.0
 41
7.5
 42
22.5
 43
0.0
 44
18.75
 45
0.0
 46
0.0
 47
0.0
 48
0.0
140
22.3125
141
0.09
142
0.0
143
25.3999999999999986
144
1.0
145
0.0
146
1.0
147
7.5
 71
     0
 72
     0
 73
     0
 74
     0
 75
     0
 76
     0
 77
     1
 78
     0
170
     0
171
     2
172
     1
173
     0
174
     1
175
     0
176
     0
177
     0
178
     7
  0
ENDTAB
  0
ENDSEC
  0
SECTION
  2
BLOCKS
  0
BLOCK
  8
0
  2
$MODEL_SPACE
 70
     0
 10
0.0
 20
0.0
 30
0.0
  3
$MODEL_SPACE
  1

  0
ENDBLK
  5
21
  8
0
  0
BLOCK
 67
     1
  8
0
  2
$PAPER_SPACE
 70
     0
 10
0.0
 20
0.0
 30
0.0
  3
$PAPER_SPACE
  1

  0
ENDBLK
  5
5B
 67
     1
  8
0
  0
BLOCK
  8
0
  2
C100X50
 70
     0
 10
0.0
 20
0.0
 30
0.0
  3
C100X50
  1

  0
LINE
  5
208
  8
0
 10
50.0
 20
-25.0
 30
0.0
 11
-50.0
 21
-25.0
 31
0.0
  0
LINE
  5
209
  8
0
 10
50.0000000005820411
 20
25.0
 30
0.0
 11
50.0000000005820411
 21
-25.0
 31
0.0
  0
LINE
  5
20A
  8
0
 10
50.0
 20
25.0
 30
0.0
 11
50.0
 21
-25.0
 31
0.0
  0
LINE
  5
20B
  8
0
 10
50.0
 20
25.0
 30
0.0
 11
30.0
 21
25.0
 31
0.0
  0
LINE
  5
20C
  8
0
 10
-30.0
 20
25.0
 30
0.0
 11
-50.0
 21
25.0
 31
0.0
  0
LINE
  5
20D
  8
0
 10
-50.0
 20
25.0
 30
0.0
 11
-50.0
 21
-25.0
 31
0.0
  0
LINE
  5
20E
  8
0
 62
   251
 10
10.0
 20
0.0
 30
0.0
 11
-10.0
 21
0.0
 31
0.0
  0
LINE
  5
20F
  8
0
 62
   251
 10
-0.0000000000000022
 20
-10.0
 30
0.0
 11
0.0000000000000022
 21
10.0
 31
0.0
  0
ENDBLK
  5
210
  8
0
  0
BLOCK
  8
0
  2
JPA
 70
     0
 10
0.0
 20
0.0
 30
0.0
  3
JPA
  1

  0
LINE
  5
215
  8
S_J_JUNCTION
 10
0.0
 20
0.0
 30
0.0
 11
0.0
 21
190.0
 31
-0.0000000000000422
  0
INSERT
  5
216
  8
0
  2
*U22
 10
0.0
 20
0.0
 30
0.0
  0
LINE
  5
217
  8
S_J_JUNCTION
 10
-25.0
 20
145.0
 30
-0.0000000000000444
 11
25.0
 21
145.0
 31
-0.0000000000000444
  0
LINE
  5
218
  8
S_J_JUNCTION
 10
-17.6776695296648505
 20
27.3223304703351495
 30
-0.0000000000000444
 11
17.6776695296648505
 21
62.6776695296648612
 31
-0.0000000000000444
  0
ENDBLK
  5
219
  8
0
  0
BLOCK
  8
0
  2
JXB
 70
     0
 10
0.0
 20
0.0
 30
0.0
  3
JXB
  1

  0
CIRCLE
  5
21E
  8
S_J_JUNCTION
 10
0.0000000158324838
 20
50.0
 30
-0.0000000000000061
 40
8.0
  0
POLYLINE
  5
21F
  8
S_J_JUNCTION
 66
     1
 10
0.0
 20
0.0
 30
0.0
 70
     1
  0
VERTEX
  5
496
  8
S_J_JUNCTION
 10
50.0000000009313226
 20
0.0
 30
0.0
  0
VERTEX
  5
497
  8
S_J_JUNCTION
 10
-50.0000000009313226
 20
0.0
 30
0.0
  0
VERTEX
  5
498
  8
S_J_JUNCTION
 10
-50.0000000006984919
 20
200.0
 30
0.0
  0
VERTEX
  5
499
  8
S_J_JUNCTION
 10
50.0000000009313226
 20
200.0
 30
0.0
  0
SEQEND
  5
49A
  8
S_J_JUNCTION
  0
CIRCLE
  5
220
  8
S_J_JUNCTION
 10
0.0000000158324838
 20
150.0
 30
-0.0000000000000061
 40
8.0
  0
INSERT
  5
221
  8
0
  2
*U23
 10
0.0
 20
0.0
 30
0.0
  0
INSERT
  5
222
  8
0
  2
*U24
 10
0.0
 20
0.0
 30
0.0
  0
ENDBLK
  5
223
  8
0
  0
BLOCK
  8
0
  2
_ARCHTICK
 70
     0
 10
0.0
 20
0.0
 30
0.0
  3
_ARCHTICK
  1

  0
POLYLINE
  5
226
  8
0
  6
BYBLOCK
 62
     0
 66
     1
 10
0.0
 20
0.0
 30
0.0
 40
0.15
 41
0.15
  0
VERTEX
  5
227
  8
0
  6
BYBLOCK
 62
     0
 10
-0.5
 20
-0.5
 30
0.0
  0
VERTEX
  5
228
  8
0
  6
BYBLOCK
 62
     0
 10
0.5
 20
0.5
 30
0.0
  0
SEQEND
  5
229
  8
0
  6
BYBLOCK
 62
     0
  0
ENDBLK
  5
22A
  8
0
  0
BLOCK
  8
0
  2
B1
 70
     0
 10
0.0
 20
0.0
 30
0.0
  3
B1
  1

  0
INSERT
  5
22F
  8
0
  2
*U25
 10
0.0
 20
0.0
 30
0.0
  0
LINE
  5
230
  8
0
 10
0.000000000007276
 20
-20.0000000007421512
 30
0.0
 11
-0.0000000000800355
 21
8469.9999999992578523
 31
0.0
  0
LINE
  5
231
  8
0
 10
-25.0000000000145484
 20
24.9999999992578594
 30
0.0
 11
24.9999999999854516
 21
24.9999999992578594
 31
0.0
  0
LINE
  5
232
  8
0
 10
-25.0000000000145484
 20
1524.9999999992580797
 30
0.0
 11
24.9999999999854516
 21
1524.9999999992580797
 31
0.0
  0
LINE
  5
233
  8
0
 10
-25.0000000000145484
 20
6924.9999999992578523
 30
0.0
 11
24.9999999999854516
 21
6924.9999999992578523
 31
0.0
  0
LINE
  5
234
  8
0
 10
-25.0000000000145484
 20
5724.9999999992578523
 30
0.0
 11
24.9999999999854516
 21
5724.9999999992578523
 31
0.0
  0
LINE
  5
235
  8
0
 10
-25.0000000000145484
 20
2724.9999999992578523
 30
0.0
 11
24.9999999999854516
 21
2724.9999999992578523
 31
0.0
  0
LINE
  5
236
  8
0
 10
-25.0000000000145484
 20
8424.9999999992578523
 30
0.0
 11
24.9999999999854516
 21
8424.9999999992578523
 31
0.0
  0
LINE
  5
237
  8
S_J_JUNCTION
 10
-25.0000000166255596
 20
1739.9999999992580797
 30
0.0000000000000061
 11
24.9999999833744404
 21
1739.9999999992580797
 31
0.0000000000000061
  0
LINE
  5
238
  8
S_J_JUNCTION
 10
-25.0000000166255596
 20
1839.9999999992580797
 30
0.0000000000000061
 11
24.9999999833744404
 21
1839.9999999992580797
 31
0.0000000000000061
  0
LINE
  5
239
  8
S_J_JUNCTION
 10
-25.0000000166255596
 20
6609.9999999992569428
 30
0.0000000000000061
 11
24.9999999833744404
 21
6609.9999999992569428
 31
0.0000000000000061
  0
LINE
  5
23A
  8
S_J_JUNCTION
 10
-25.0000000166255596
 20
6709.9999999992578523
 30
0.0000000000000061
 11
24.9999999833744404
 21
6709.9999999992578523
 31
0.0000000000000061
  0
LINE
  5
23B
  8
0
 10
-25.0000000000145484
 20
5844.9999999992578523
 30
0.0
 11
24.9999999999854516
 21
5844.9999999992578523
 31
0.0
  0
LINE
  5
23C
  8
0
 10
-25.0000000000145484
 20
599.9999999992578523
 30
0.0
 11
24.9999999999854516
 21
599.9999999992578523
 31
0.0
  0
LINE
  5
23D
  8
0
 10
-25.0000000000145484
 20
1299.9999999992580797
 30
0.0000000000000344
 11
24.9999999999854516
 21
1299.9999999992580797
 31
0.0000000000000344
  0
LINE
  5
23E
  8
0
 10
-25.0000000000145484
 20
2206.2499999992578523
 30
0.0
 11
24.9999999999854516
 21
2206.2499999992578523
 31
0.0
  0
LINE
  5
23F
  8
0
 10
-25.0000000000145484
 20
2862.4999999992578523
 30
0.0
 11
24.9999999999854516
 21
2862.4999999992578523
 31
0.0
  0
LINE
  5
240
  8
0
 10
-25.0000000000145484
 20
2604.9999999992578523
 30
0.0
 11
24.9999999999854516
 21
2604.9999999992578523
 31
0.0
  0
LINE
  5
241
  8
0
 10
-25.0000000000218314
 20
3518.7499999992578523
 30
0.0000000000000289
 11
24.9999999999781686
 21
3518.7499999992578523
 31
0.0000000000000289
  0
LINE
  5
242
  8
0
 10
-25.0000000000218314
 20
4174.9999999992578523
 30
0.0000000000000289
 11
24.9999999999781686
 21
4174.9999999992578523
 31
0.0000000000000289
  0
LINE
  5
243
  8
0
 10
-25.0000000000218314
 20
4831.2499999992578523
 30
0.0000000000000289
 11
24.9999999999781686
 21
4831.2499999992578523
 31
0.0000000000000289
  0
LINE
  5
244
  8
0
 10
-25.0000000000218314
 20
5487.4999999992578523
 30
0.0000000000000289
 11
24.9999999999781686
 21
5487.4999999992578523
 31
0.0000000000000289
  0
LINE
  5
245
  8
0
 10
-25.0000000000218314
 20
6143.7499999992578523
 30
0.0000000000000289
 11
24.9999999999781686
 21
6143.7499999992578523
 31
0.0000000000000289
  0
LINE
  5
246
  8
0
 10
-25.0000000000218314
 20
7149.9999999992578523
 30
0.0000000000000289
 11
24.9999999999781686
 21
7149.9999999992578523
 31
0.0000000000000289
  0
LINE
  5
247
  8
0
 10
-25.0000000000218314
 20
7849.9999999992578523
 30
0.0000000000000289
 11
24.9999999999781686
 21
7849.9999999992578523
 31
0.0000000000000289
  0
LINE
  5
248
  8
0
 10
-25.0000000000145484
 20
1644.9999999992580797
 30
0.0
 11
24.9999999999854516
 21
1644.9999999992580797
 31
0.0
  0
LINE
  5
249
  8
0
 10
-25.0000000000145484
 20
6804.9999999992578523
 30
0.0
 11
24.9999999999854516
 21
6804.9999999992578523
 31
0.0
  0
ENDBLK
  5
24A
  8
0
  0
BLOCK
  8
0
  2
C1
 70
     0
 10
0.0
 20
0.0
 30
0.0
  3
C1
  1

  0
LINE
  5
24F
  8
0
 10
0.0
 20
-200.0
 30
0.0
 11
0.0
 21
3499.9999999839269549
 31
0.0
  0
INSERT
  5
250
  8
0
  2
*U26
 10
0.0
 20
0.0
 30
0.0
  0
LINE
  5
251
  8
0
 10
-25.0000000004074607
 20
379.9999999999855049
 30
0.0
 11
24.9999999995925499
 21
379.9999999999855049
 31
0.0
  0
LINE
  5
252
  8
0
 10
-17.677669518598119
 20
297.6776695296649109
 30
0.0
 11
17.6776695407461411
 21
262.3223304703350891
 31
0.0
  0
LINE
  5
253
  8
0
 10
-17.677669518598119
 20
3472.6776695296648541
 30
0.0
 11
17.6776695407461411
 21
3437.3223304703351459
 31
0.0
  0
LINE
  5
254
  8
0
 10
-17.677669518598119
 20
3422.6776695296648541
 30
0.0
 11
17.6776695407461411
 21
3387.3223304703351459
 31
0.0
  0
ENDBLK
  5
255
  8
0
  0
BLOCK
  8
0
  2
U1
 70
     0
 10
0.0
 20
0.0
 30
0.0
  3
U1
  1

  0
LINE
  5
25A
  8
0
 10
-17.6776695185835706
 20
297.6776695296575781
 30
0.0
 11
17.6776695407461411
 21
262.3223304703279268
 31
0.0
  0
LINE
  5
25B
  8
0
 10
0.0
 20
-200.0
 30
0.0
 11
0.0
 21
3660.0
 31
0.0
  0
INSERT
  5
25C
  8
0
  2
*U27
 10
0.0
 20
0.0
 30
0.0
  0
LINE
  5
25D
  8
0
 10
-25.0000000004074607
 20
379.9999999999855049
 30
0.0
 11
24.9999999995925499
 21
379.9999999999855049
 31
0.0
  0
LINE
  5
25E
  8
0
 10
-17.6776695185835706
 20
3472.6776695296580328
 30
0.0
 11
17.6776695407461411
 21
3437.32233047032787
 31
0.0
  0
LINE
  5
25F
  8
0
 10
-25.0000000003929017
 20
3615.0
 30
0.0
 11
24.9999999996070983
 21
3615.0
 31
0.0
  0
LINE
  5
260
  8
0
 10
-17.6776695185835706
 20
3310.1776695285011556
 30
0.0
 11
17.6776695407461411
 21
3274.8223304691709927
 31
0.0
  0
LINE
  5
261
  8
0
 10
-25.0000000004074607
 20
2580.0000000005529728
 30
0.0
 11
24.9999999995925499
 21
2580.0000000005529728
 31
0.0
  0
LINE
  5
262
  8
0
 10
-17.6776695185835706
 20
3422.6776695296580328
 30
0.0
 11
17.6776695407461411
 21
3387.32233047032787
 31
0.0
  0
ENDBLK
  5
263
  8
0
  0
BLOCK
  8
0
  2
U2
 70
     0
 10
0.0
 20
0.0
 30
0.0
  3
U2
  1

  0
LINE
  5
268
  8
0
 10
-17.677669518598119
 20
297.6776695296940147
 30
0.0
 11
17.6776695407461411
 21
262.3223304703643066
 31
0.0
  0
LINE
  5
269
  8
0
 10
0.0000000000145519
 20
0.0
 30
0.0
 11
0.0
 21
3499.9999999988358468
 31
0.0
  0
INSERT
  5
26A
  8
0
  2
*U28
 10
0.0
 20
0.0
 30
0.0
  0
LINE
  5
26B
  8
0
 10
-17.6776695185690187
 20
3310.1776695285011556
 30
0.0
 11
17.6776695407752413
 21
3274.8223304691709927
 31
0.0
  0
LINE
  5
26C
  8
0
 10
-17.67766952967213
 20
3472.6776695124358412
 30
0.0
 11
17.67766952967213
 21
3437.3223304531061331
 31
0.0
  0
LINE
  5
26D
  8
0
 10
-17.67766952967213
 20
3422.6776695124358412
 30
0.0
 11
17.67766952967213
 21
3387.3223304531061331
 31
0.0
  0
ENDBLK
  5
26E
  8
0
  0
BLOCK
  8
0
  2
CN1
 70
     0
 10
0.0
 20
0.0
 30
0.0
  3
CN1
  1

  0
LINE
  5
273
  8
0
 10
0.0
 20
0.0
 30
0.0
 11
-0.0000000000145519
 21
3359.1321478002209915
 31
0.0
  0
INSERT
  5
274
  8
0
  2
*U29
 10
0.0
 20
0.0
 30
0.0
  0
LINE
  5
275
  8
0
 10
-17.677669529657571
 20
27.3223304703424184
 30
0.0
 11
17.67766952967213
 21
62.677669529657571
 31
0.0
  0
LINE
  5
276
  8
0
 10
-17.677669529657571
 20
3296.4544782874691009
 30
0.0
 11
17.67766952967213
 21
3331.8098173467769811
 31
0.0
  0
ENDBLK
  5
277
  8
0
  0
BLOCK
  8
0
  2
D1
 70
     0
 10
0.0
 20
0.0
 30
0.0
  3
D1
  1

  0
LINE
  5
27C
  8
0
 10
0.0
 20
0.0
 30
0.0
 11
0.000000000007276
 21
9250.0
 31
0.0
  0
INSERT
  5
27D
  8
0
  2
*U30
 10
0.0
 20
0.0
 30
0.0
  0
LINE
  5
27E
  8
0
 10
-24.9999999839346891
 20
425.0
 30
0.0
 11
25.0000000160653215
 21
425.0
 31
0.0
  0
LINE
  5
27F
  8
0
 10
-24.9999999839346891
 20
7325.0
 30
0.0
 11
25.0000000160653215
 21
7325.0
 31
0.0
  0
LINE
  5
280
  8
0
 10
-24.9999999839346891
 20
6125.0
 30
0.0
 11
25.0000000160653215
 21
6125.0
 31
0.0
  0
LINE
  5
281
  8
0
 10
-24.9999999839346891
 20
1925.0
 30
0.0
 11
25.0000000160653215
 21
1925.0
 31
0.0
  0
LINE
  5
282
  8
0
 10
-24.9999999839346891
 20
3125.0
 30
0.0
 11
25.0000000160653215
 21
3125.0
 31
0.0
  0
LINE
  5
283
  8
0
 10
-24.9999999839346891
 20
7205.0
 30
0.0
 11
25.0000000160653215
 21
7205.0
 31
0.0
  0
LINE
  5
284
  8
0
 10
-24.9999999839346891
 20
2045.0
 30
0.0
 11
25.0000000160653215
 21
2045.0
 31
0.0
  0
LINE
  5
285
  8
0
 10
-25.0000000166182907
 20
2140.0
 30
0.0000000000000061
 11
24.9999999833817093
 21
2140.0
 31
0.0000000000000061
  0
LINE
  5
286
  8
0
 10
-25.0000000166182907
 20
2240.0
 30
0.0000000000000061
 11
24.9999999833817093
 21
2240.0
 31
0.0000000000000061
  0
LINE
  5
287
  8
0
 10
-24.9999999839346891
 20
2606.25
 30
0.0000000000000522
 11
25.0000000160653215
 21
2606.25
 31
0.0000000000000522
  0
LINE
  5
288
  8
0
 10
-24.9999999839346891
 20
3262.5
 30
0.0000000000000566
 11
25.0000000160653215
 21
3262.5
 31
0.0000000000000566
  0
LINE
  5
289
  8
0
 10
-24.9999999839346891
 20
3918.75
 30
0.0000000000000611
 11
25.0000000160653215
 21
3918.75
 31
0.0000000000000611
  0
LINE
  5
28A
  8
0
 10
-24.9999999839274096
 20
4575.0
 30
0.0000000000000655
 11
25.0000000160725904
 21
4575.0
 31
0.0000000000000655
  0
LINE
  5
28B
  8
0
 10
-24.9999999839346891
 20
5231.25
 30
0.0000000000000611
 11
25.0000000160653215
 21
5231.25
 31
0.0000000000000611
  0
LINE
  5
28C
  8
0
 10
-24.9999999839346891
 20
5887.5
 30
0.0000000000000566
 11
25.0000000160653215
 21
5887.5
 31
0.0000000000000566
  0
LINE
  5
28D
  8
0
 10
-24.9999999839346891
 20
6543.75
 30
0.0000000000000522
 11
25.0000000160653215
 21
6543.75
 31
0.0000000000000522
  0
LINE
  5
28E
  8
0
 10
-25.0000000166182907
 20
7010.0
 30
0.0000000000000061
 11
24.9999999833817093
 21
7010.0
 31
0.0000000000000061
  0
LINE
  5
28F
  8
0
 10
-25.0000000166182907
 20
7110.0
 30
0.0000000000000061
 11
24.9999999833817093
 21
7110.0
 31
0.0000000000000061
  0
LINE
  5
290
  8
0
 10
-24.9999999839346891
 20
7966.666666666801575
 30
0.0000000000000433
 11
25.0000000160653215
 21
7966.666666666801575
 31
0.0000000000000433
  0
LINE
  5
291
  8
0
 10
-24.9999999839346891
 20
8583.3333333334012423
 30
0.0000000000000389
 11
25.0000000160653215
 21
8583.3333333334012423
 31
0.0000000000000389
  0
LINE
  5
292
  8
0
 10
-24.9999999839274096
 20
9200.0
 30
0.0000000000000344
 11
25.0000000160725904
 21
9200.0
 31
0.0000000000000344
  0
LINE
  5
293
  8
0
 10
-24.9999999839274096
 20
8825.0000000000145519
 30
0.0
 11
25.0000000160725904
 21
8825.0000000000145519
 31
0.0
  0
LINE
  5
294
  8
0
 10
-24.9999999839274096
 20
50.0
 30
0.0000000000000344
 11
25.0000000160725904
 21
50.0
 31
0.0000000000000344
  0
LINE
  5
295
  8
0
 10
-24.9999999839346891
 20
3005.0
 30
0.0
 11
25.0000000160653215
 21
3005.0
 31
0.0
  0
LINE
  5
296
  8
0
 10
-24.9999999839346891
 20
6245.0
 30
0.0
 11
25.0000000160653215
 21
6245.0
 31
0.0
  0
LINE
  5
297
  8
0
 10
-24.9999999839346891
 20
1183.3333333331970607
 30
0.0000000000000488
 11
25.0000000160653215
 21
1183.3333333331970607
 31
0.0000000000000488
  0
LINE
  5
298
  8
0
 10
-24.9999999839346891
 20
566.666666666598644
 30
0.0000000000000444
 11
25.0000000160653215
 21
566.666666666598644
 31
0.0000000000000444
  0
ENDBLK
  5
299
  8
0
  0
BLOCK
  8
0
  2
D2
 70
     0
 10
0.0
 20
0.0
 30
0.0
  3
D2
  1

  0
LINE
  5
29E
  8
0
 10
0.0
 20
0.0
 30
0.0
 11
-0.000000000007276
 21
5490.0
 31
0.0
  0
INSERT
  5
29F
  8
0
  2
*U31
 10
0.0
 20
0.0
 30
0.0
  0
LINE
  5
2A0
  8
0
 10
-24.9999999839346891
 20
45.0
 30
0.0
 11
25.0000000160653215
 21
45.0
 31
0.0
  0
LINE
  5
2A1
  8
0
 10
-24.9999999839346891
 20
5445.0
 30
0.0
 11
25.0000000160653215
 21
5445.0
 31
0.0
  0
LINE
  5
2A2
  8
0
 10
-25.0
 20
726.2500000160797526
 30
0.0
 11
25.0
 21
726.2500000160797526
 31
0.0
  0
LINE
  5
2A3
  8
0
 10
-25.0
 20
1244.9999999888968887
 30
0.0
 11
25.0
 21
1244.9999999888968887
 31
0.0
  0
LINE
  5
2A4
  8
0
 10
-24.9999999839274096
 20
1382.5
 30
0.0
 11
25.0000000160725904
 21
1382.5
 31
0.0
  0
LINE
  5
2A5
  8
0
 10
-24.9999999839274096
 20
2038.75
 30
0.0
 11
25.0000000160725904
 21
2038.75
 31
0.0
  0
LINE
  5
2A6
  8
0
 10
-24.9999999839346891
 20
2695.0
 30
0.0
 11
25.0000000160653215
 21
2695.0
 31
0.0
  0
LINE
  5
2A7
  8
0
 10
-24.9999999839274096
 20
3351.25
 30
0.0
 11
25.0000000160725904
 21
3351.25
 31
0.0
  0
LINE
  5
2A8
  8
0
 10
-24.9999999839274096
 20
4007.5
 30
0.0
 11
25.0000000160725904
 21
4007.5
 31
0.0
  0
LINE
  5
2A9
  8
0
 10
-24.9999999839492411
 20
4245.0
 30
0.0
 11
25.0000000160507589
 21
4245.0
 31
0.0
  0
LINE
  5
2AA
  8
0
 10
-25.0000000000072795
 20
4663.7500000160789568
 30
0.0
 11
24.9999999999927311
 21
4663.7500000160789568
 31
0.0
  0
ENDBLK
  5
2AB
  8
0
  0
BLOCK
  8
0
  2
JP493
 70
     0
 10
0.0
 20
0.0
 30
0.0
  3
JP493
  1

  0
LINE
  5
2B0
  8
S_J_JUNCTION
 10
0.0000000000145519
 20
-62.500000033302058
 30
0.0000000000000139
 11
0.0
 21
429.9999999839345719
 31
-0.0000000000000955
  0
INSERT
  5
2B1
  8
0
  2
*U32
 10
0.0
 20
0.0
 30
0.0
  0
LINE
  5
2B2
  8
S_J_JUNCTION
 10
-25.0
 20
384.9999999839346856
 30
-0.0000000000000977
 11
25.0
 21
384.9999999839346856
 31
-0.0000000000000977
  0
LINE
  5
2B3
  8
S_J_JUNCTION
 10
-17.6776695296648505
 20
127.3223304542698031
 30
-0.0000000000000977
 11
17.6776695296648505
 21
162.6776695135995112
 31
-0.0000000000000977
  0
LINE
  5
2B4
  8
S_J_JUNCTION
 10
-17.6776695296648505
 20
-35.1776695468943217
 30
-0.0000000000000977
 11
17.6776695296648505
 21
0.1776695124353864
 31
-0.0000000000000977
  0
LINE
  5
2B5
  8
S_J_JUNCTION
 10
-17.6776695296648505
 20
77.3223304542698315
 30
-0.0000000000000977
 11
17.6776695296648505
 21
112.677669513599497
 31
-0.0000000000000977
  0
ENDBLK
  5
2B6
  8
0
  0
BLOCK
  8
0
  2
Œ›∂•È›Ãı∂œ√Ê
 70
     0
 10
0.0
 20
0.0
 30
0.0
  3
Œ›∂•È›Ãı∂œ√Ê
  1

1001
ACADSTRINGINFO
1000
MIFCodePage
1070
     5
  0
INSERT
  5
2B9
  8
S_G_TRACK
  2
C100X50
 10
-4625.0
 20
-140.0000000011640964
 30
0.0
 41
-1.0
 50
270.0
  0
INSERT
  5
2BA
  8
S_G_TRACK
  2
C100X50
 10
2775.0
 20
-80.0
 30
0.0
 41
-1.0
 50
270.0
  0
INSERT
  5
2BB
  8
S_G_TRACK
  2
C100X50
 10
2625.0
 20
-80.0
 30
0.0
 50
90.0000000000000284
  0
INSERT
  5
2BC
  8
S_G_TRACK
  2
C100X50
 10
-1968.75
 20
-60.0
 30
0.0
 41
-1.0
 50
270.0
  0
INSERT
  5
2BD
  8
S_G_TRACK
  2
C100X50
 10
-1312.5
 20
-40.0
 30
0.0
 41
-1.0
 50
270.0
  0
INSERT
  5
2BE
  8
S_G_TRACK
  2
C100X50
 10
-656.25
 20
-20.0
 30
0.0
 41
-1.0
 50
270.0
  0
INSERT
  5
2BF
  8
S_G_TRACK
  2
C100X50
 10
0.0
 20
0.0
 30
0.0
 41
-1.0
 50
270.0
  0
INSERT
  5
2C0
  8
S_G_TRACK
  2
C100X50
 10
656.25
 20
-20.0
 30
0.0
 41
-1.0
 50
270.0
  0
INSERT
  5
2C1
  8
S_G_TRACK
  2
C100X50
 10
1312.5
 20
-40.0
 30
0.0
 41
-1.0
 50
270.0
  0
INSERT
  5
2C2
  8
S_G_TRACK
  2
C100X50
 10
1968.75
 20
-60.0
 30
0.0
 41
-1.0
 50
270.0
  0
INSERT
  5
2C3
  8
S_G_TRACK
  2
C100X50
 10
-2775.0
 20
-80.0
 30
0.0
 50
90.0
  0
INSERT
  5
2C4
  8
S_G_TRACK
  2
C100X50
 10
-2625.0
 20
-80.0
 30
0.0
 41
-1.0
 50
270.0
  0
INSERT
  5
2C5
  8
S_G_TRACK
  2
C100X50
 10
-4008.3333333334007875
 20
-120.0000000011640964
 30
0.0
 41
-1.0
 50
270.0
  0
INSERT
  5
2C6
  8
S_G_TRACK
  2
C100X50
 10
-3391.6666666668029393
 20
-100.0000000011640964
 30
0.0
 41
-1.0
 50
270.0
  0
INSERT
  5
2C7
  8
S_G_TRACK
  2
C100X50
 10
4625.0
 20
-140.0000000011640964
 30
0.0
 50
90.0000000000000284
  0
INSERT
  5
2C8
  8
S_G_TRACK
  2
C100X50
 10
4008.3333333334007875
 20
-120.0000000011640964
 30
0.0
 41
-1.0
 50
270.0
  0
INSERT
  5
2C9
  8
S_G_TRACK
  2
C100X50
 10
3391.6666666668029393
 20
-100.0000000011640964
 30
0.0
 41
-1.0
 50
270.0
  0
ENDBLK
  5
2CA
  8
0
  0
BLOCK
  8
0
  2
JP473
 70
     0
 10
0.0
 20
0.0
 30
0.0
  3
JP473
  1

  0
LINE
  5
2CF
  8
S_J_JUNCTION
 10
0.0
 20
-62.5000000333166099
 30
0.0000000000000139
 11
0.0
 21
409.9999999839200768
 31
-0.000000000000091
  0
INSERT
  5
2D0
  8
0
  2
*U33
 10
0.0
 20
0.0
 30
0.0
  0
LINE
  5
2D1
  8
S_J_JUNCTION
 10
-25.0
 20
364.9999999839200768
 30
-0.0000000000000933
 11
25.0
 21
364.9999999839200768
 31
-0.0000000000000933
  0
LINE
  5
2D2
  8
S_J_JUNCTION
 10
-17.6776695296648505
 20
127.3223304542480037
 30
-0.0000000000000933
 11
17.6776695296648505
 21
162.6776695135777118
 31
-0.0000000000000933
  0
LINE
  5
2D3
  8
S_J_JUNCTION
 10
-17.6776695296648505
 20
-35.1776695469088807
 30
-0.0000000000000933
 11
17.6776695296648505
 21
0.1776695124208345
 31
-0.0000000000000933
  0
LINE
  5
2D4
  8
S_J_JUNCTION
 10
-17.6776695296648505
 20
77.3223304542480037
 30
-0.0000000000000933
 11
17.6776695296648505
 21
112.6776695135776976
 31
-0.0000000000000933
  0
ENDBLK
  5
2D5
  8
0
  0
BLOCK
  8
0
  2
JP453
 70
     0
 10
0.0
 20
0.0
 30
0.0
  3
JP453
  1

  0
LINE
  5
2DA
  8
S_J_JUNCTION
 10
0.000000000007276
 20
-62.500000033302058
 30
0.0000000000000139
 11
0.0
 21
389.9999999839420184
 31
-0.0000000000000866
  0
INSERT
  5
2DB
  8
0
  2
*U34
 10
0.0
 20
0.0
 30
0.0
  0
LINE
  5
2DC
  8
S_J_JUNCTION
 10
-25.0
 20
344.9999999839420184
 30
-0.0000000000000888
 11
25.0
 21
344.9999999839420184
 31
-0.0000000000000888
  0
LINE
  5
2DD
  8
S_J_JUNCTION
 10
-17.6776695296648505
 20
127.3223304542698031
 30
-0.0000000000000888
 11
17.6776695296648505
 21
162.6776695135995112
 31
-0.0000000000000888
  0
LINE
  5
2DE
  8
S_J_JUNCTION
 10
-17.67766952967213
 20
-35.1776695468943217
 30
-0.0000000000000888
 11
17.677669529657571
 21
0.1776695124353864
 31
-0.0000000000000888
  0
LINE
  5
2DF
  8
S_J_JUNCTION
 10
-17.6776695296648505
 20
77.3223304542698315
 30
-0.0000000000000888
 11
17.6776695296648505
 21
112.677669513599497
 31
-0.0000000000000888
  0
ENDBLK
  5
2E0
  8
0
  0
BLOCK
  8
0
  2
JP433
 70
     0
 10
0.0
 20
0.0
 30
0.0
  3
JP433
  1

  0
LINE
  5
2E5
  8
S_J_JUNCTION
 10
-0.000000000007276
 20
-62.5000000172221917
 30
0.0000000000000139
 11
0.0
 21
369.9999999839420184
 31
-0.0000000000000822
  0
INSERT
  5
2E6
  8
0
  2
*U35
 10
0.0
 20
0.0
 30
0.0
  0
LINE
  5
2E7
  8
S_J_JUNCTION
 10
-25.0
 20
324.9999999839420184
 30
-0.0000000000000844
 11
25.0
 21
324.9999999839420184
 31
-0.0000000000000844
  0
LINE
  5
2E8
  8
S_J_JUNCTION
 10
-17.6776695296648505
 20
127.3223304542698031
 30
-0.0000000000000844
 11
17.6776695296648505
 21
162.6776695135995112
 31
-0.0000000000000844
  0
LINE
  5
2E9
  8
S_J_JUNCTION
 10
-17.6776695135849913
 20
-35.1776695468870528
 30
-0.0000000000000844
 11
17.6776695457447204
 21
0.1776695124426624
 31
-0.0000000000000844
  0
LINE
  5
2EA
  8
S_J_JUNCTION
 10
-17.6776695296648505
 20
77.3223304542698315
 30
-0.0000000000000844
 11
17.6776695296648505
 21
112.677669513599497
 31
-0.0000000000000844
  0
ENDBLK
  5
2EB
  8
0
  0
BLOCK
  8
0
  2
JP280
 70
     0
 10
0.0
 20
0.0
 30
0.0
  3
JP280
  1

  0
LINE
  5
2F0
  8
S_J_JUNCTION
 10
0.000000000007276
 20
-50.0000000011787122
 30
0.0000000000000111
 11
0.0
 21
230.0000000148939137
 31
-0.0000000000000511
  0
INSERT
  5
2F1
  8
0
  2
*U36
 10
0.0
 20
0.0
 30
0.0
  0
LINE
  5
2F2
  8
S_J_JUNCTION
 10
-25.0
 20
185.0000000148939137
 30
-0.0000000000000533
 11
25.0
 21
185.0000000148939137
 31
-0.0000000000000533
  0
LINE
  5
2F3
  8
S_J_JUNCTION
 10
-17.6776695296648505
 20
27.3223304863786289
 30
-0.0000000000000533
 11
17.6776695296648505
 21
62.6776695457083406
 31
-0.0000000000000533
  0
LINE
  5
2F4
  8
S_J_JUNCTION
 10
-17.6776695296648505
 20
-22.6776695136213711
 30
-0.0000000000000533
 11
17.6776695296648505
 21
12.6776695457083406
 31
-0.0000000000000533
  0
ENDBLK
  5
2F5
  8
0
  0
BLOCK
  8
0
  2
JP260
 70
     0
 10
0.0
 20
0.0
 30
0.0
  3
JP260
  1

  0
LINE
  5
2FA
  8
S_J_JUNCTION
 10
0.0
 20
-49.9999999851133907
 30
0.0000000000000111
 11
0.0
 21
210.0000000149084087
 31
-0.0000000000000466
  0
INSERT
  5
2FB
  8
0
  2
*U37
 10
0.0
 20
0.0
 30
0.0
  0
LINE
  5
2FC
  8
S_J_JUNCTION
 10
-25.0
 20
165.0000000149084087
 30
-0.0000000000000488
 11
25.0
 21
165.0000000149084087
 31
-0.0000000000000488
  0
LINE
  5
2FD
  8
S_J_JUNCTION
 10
-17.6776695296648505
 20
27.3223304864004604
 30
-0.0000000000000488
 11
17.6776695296648505
 21
62.6776695457301685
 31
-0.0000000000000488
  0
LINE
  5
2FE
  8
S_J_JUNCTION
 10
-17.6776695296648505
 20
-22.6776695135995396
 30
-0.0000000000000488
 11
17.6776695296648505
 21
12.6776695457301702
 31
-0.0000000000000488
  0
ENDBLK
  5
2FF
  8
0
  0
BLOCK
  8
0
  2
ZC1
 70
     0
 10
0.0
 20
0.0
 30
0.0
  3
ZC1
  1

  0
LINE
  5
304
  8
0
 10
-0.0000000000145519
 20
1446.2576129422370741
 30
0.0
 11
-0.0000000000291038
 21
3271.257612942238211
 31
0.0
  0
INSERT
  5
305
  8
0
  2
*U38
 10
0.0
 20
0.0
 30
0.0
  0
ENDBLK
  5
306
  8
0
  0
BLOCK
  8
0
  2
JP240
 70
     0
 10
0.0
 20
0.0
 30
0.0
  3
JP240
  1

  0
LINE
  5
309
  8
S_J_JUNCTION
 10
0.0
 20
0.0
 30
0.0
 11
0.0
 21
240.0000000011642101
 31
-0.0000000000000533
  0
INSERT
  5
30A
  8
0
  2
*U39
 10
0.0
 20
0.0
 30
0.0
  0
LINE
  5
30B
  8
S_J_JUNCTION
 10
-25.0
 20
195.0000000011640964
 30
-0.0000000000000555
 11
25.0
 21
195.0000000011640964
 31
-0.0000000000000555
  0
LINE
  5
30C
  8
S_J_JUNCTION
 10
-17.6776695296648505
 20
77.3223304714992992
 30
-0.0000000000000555
 11
17.6776695296648505
 21
112.6776695308289931
 31
-0.0000000000000555
  0
LINE
  5
30D
  8
S_J_JUNCTION
 10
-17.6776695296648505
 20
27.3223304714992992
 30
-0.0000000000000555
 11
17.6776695296648505
 21
62.6776695308290073
 31
-0.0000000000000555
  0
ENDBLK
  5
30E
  8
0
  0
BLOCK
  8
0
  2
*U22
 70
     1
 10
0.0
 20
0.0
 30
0.0
  3
*U22
  1

  0
TEXT
  5
492
  8
S_J_JUNCTION
 10
-30.52207651024219
 20
-50.0000000000000071
 30
0.0000000000000031
 40
50.0
  1
JPA
 41
0.7
  7
TSSD_REIN
  0
ENDBLK
  5
494
  8
0
  0
BLOCK
  8
0
  2
*U23
 70
     1
 10
0.0
 20
0.0
 30
0.0
  3
*U23
  1

  0
TEXT
  5
49C
  8
S_J_JUNCTION
 10
50.2000000009313325
 20
-0.0075034106412007
 30
0.0
 40
0.2
  1
JXb
 50
89.9999999999999858
  0
ENDBLK
  5
49E
  8
0
  0
BLOCK
  8
0
  2
*U24
 70
     1
 10
0.0
 20
0.0
 30
0.0
  3
*U24
  1

  0
TEXT
  5
4A0
  8
S_J_JUNCTION
 10
100.4865622540710035
 20
69.0673184606129809
 30
-0.4957693594318459
 40
50.0
  1
JXB
 50
89.9999999999999432
 41
0.7
  7
TSSD_REIN
  0
ENDBLK
  5
4A2
  8
0
  0
BLOCK
  8
0
  2
*U25
 70
     1
 10
0.0
 20
0.0
 30
0.0
  3
*U25
  1

  0
TEXT
  5
4A8
  8
0
 10
311.8356315857237178
 20
418.949024108849585
 30
0.0
 40
300.0
  1
B1
 50
90.0
 41
0.7
  7
TSSD_REIN
  0
ENDBLK
  5
4AA
  8
0
  0
BLOCK
  8
0
  2
*U26
 70
     1
 10
0.0
 20
0.0
 30
0.0
  3
*U26
  1

  0
TEXT
  5
4AD
  8
0
 10
-15.3150255846558103
 20
-541.6849451906164177
 30
0.0
 40
300.0
  1
C1
 41
0.7
  7
TSSD_REIN
  0
ENDBLK
  5
4AF
  8
0
  0
BLOCK
  8
0
  2
*U27
 70
     1
 10
0.0
 20
0.0
 30
0.0
  3
*U27
  1

  0
TEXT
  5
4B2
  8
0
 10
-15.3150255846558103
 20
-573.528723910858389
 30
0.0
 40
300.0
  1
U1
 41
0.7
  7
TSSD_REIN
  0
ENDBLK
  5
4B4
  8
0
  0
BLOCK
  8
0
  2
*U28
 70
     1
 10
0.0
 20
0.0
 30
0.0
  3
*U28
  1

  0
TEXT
  5
4B7
  8
0
 10
-15.3150255846558103
 20
-364.7437093098415062
 30
0.0
 40
300.0
  1
U2
 41
0.7
  7
TSSD_REIN
  0
ENDBLK
  5
4B9
  8
0
  0
BLOCK
  8
0
  2
*U29
 70
     1
 10
0.0
 20
0.0
 30
0.0
  3
*U29
  1

  0
TEXT
  5
4BC
  8
0
 10
-32.951230596168898
 20
825.8833539527985295
 30
0.0
 40
300.0
  1
CN1
 50
90.0
 41
0.7
  7
TSSD_REIN
  0
ENDBLK
  5
4BE
  8
0
  0
BLOCK
  8
0
  2
*U30
 70
     1
 10
0.0
 20
0.0
 30
0.0
  3
*U30
  1

  0
TEXT
  5
4C1
  8
0
 10
347.9747219543205006
 20
202.2938441255246005
 30
0.0
 40
300.0
  1
D1
 50
90.0
 41
0.7
  7
TSSD_REIN
  0
ENDBLK
  5
4C3
  8
0
  0
BLOCK
  8
0
  2
*U31
 70
     1
 10
0.0
 20
0.0
 30
0.0
  3
*U31
  1

  0
TEXT
  5
4C6
  8
0
 10
342.9783216540236026
 20
202.2938441255246005
 30
0.0
 40
300.0
  1
D2
 50
90.0
 41
0.7
  7
TSSD_REIN
  0
ENDBLK
  5
4C8
  8
0
  0
BLOCK
  8
0
  2
*U32
 70
     1
 10
0.0
 20
0.0
 30
0.0
  3
*U32
  1

  0
TEXT
  5
4CB
  8
S_J_JUNCTION
 10
-155.7046975163974878
 20
-109.430043262022096
 30
-0.0000000000000502
 40
50.0
  1
JP493
 41
0.7
  7
TSSD_REIN
  0
ENDBLK
  5
4CD
  8
0
  0
BLOCK
  8
0
  2
*U33
 70
     1
 10
0.0
 20
0.0
 30
0.0
  3
*U33
  1

  0
TEXT
  5
4D1
  8
S_J_JUNCTION
 10
-155.7046975163974878
 20
-91.8125938918237949
 30
-0.0000000000000457
 40
50.0
  1
JP473
 41
0.7
  7
TSSD_REIN
  0
ENDBLK
  5
4D3
  8
0
  0
BLOCK
  8
0
  2
*U34
 70
     1
 10
0.0
 20
0.0
 30
0.0
  3
*U34
  1

  0
TEXT
  5
4D6
  8
S_J_JUNCTION
 10
-155.7046975163974878
 20
-104.7529200190255949
 30
-0.0000000000000413
 40
50.0
  1
JP453
 41
0.7
  7
TSSD_REIN
  0
ENDBLK
  5
4D8
  8
0
  0
BLOCK
  8
0
  2
*U35
 70
     1
 10
0.0
 20
0.0
 30
0.0
  3
*U35
  1

  0
TEXT
  5
4DB
  8
S_J_JUNCTION
 10
-155.7046975163974878
 20
-105.3302511378933985
 30
-0.0000000000000369
 40
50.0
  1
JP433
 41
0.7
  7
TSSD_REIN
  0
ENDBLK
  5
4DD
  8
0
  0
BLOCK
  8
0
  2
*U36
 70
     1
 10
0.0
 20
0.0
 30
0.0
  3
*U36
  1

  0
TEXT
  5
4E0
  8
S_J_JUNCTION
 10
-155.7046975163974878
 20
-91.1581075532667455
 30
-0.0000000000000058
 40
50.0
  1
JP280
 41
0.7
  7
TSSD_REIN
  0
ENDBLK
  5
4E2
  8
0
  0
BLOCK
  8
0
  2
*U37
 70
     1
 10
0.0
 20
0.0
 30
0.0
  3
*U37
  1

  0
TEXT
  5
4E5
  8
S_J_JUNCTION
 10
-155.7046975163974878
 20
-89.2828016247876945
 30
-0.0000000000000013
 40
50.0
  1
JP260
 41
0.7
  7
TSSD_REIN
  0
ENDBLK
  5
4E7
  8
0
  0
BLOCK
  8
0
  2
*U38
 70
     1
 10
0.0
 20
0.0
 30
0.0
  3
*U38
  1

  0
TEXT
  5
4EA
  8
0
 10
333.9054050548002124
 20
1308.8522286114600774
 30
0.0
 40
300.0
  1
ZC1
 50
90.0
 41
0.7
  7
TSSD_REIN
  0
ENDBLK
  5
4EC
  8
0
  0
BLOCK
  8
0
  2
*U39
 70
     1
 10
0.0
 20
0.0
 30
0.0
  3
*U39
  1

  0
TEXT
  5
4EF
  8
S_J_JUNCTION
 10
-30.52207651024219
 20
-79.8817313872277737
 30
-0.000000000000008
 40
50.0
  1
JP240
 41
0.7
  7
TSSD_REIN
  0
ENDBLK
  5
4F1
  8
0
  0
ENDSEC
  0
SECTION
  2
ENTITIES
  0
INSERT
  5
37A
  8
S_C_COLUMN_MINOR
  2
C1
 10
464.3444813573402143
 20
1658.3905876183150667
 30
0.0
  0
INSERT
  5
37B
  8
S_C_COLUMN_MINOR
  2
C1
 10
8864.3444813573405554
 20
1658.3905876183150667
 30
0.0
 41
-1.0
  0
INSERT
  5
37C
  8
S_U_COLUMN_MAJOR
  2
U1
 10
1964.3444813573401007
 20
1658.3905876183150667
 30
0.0
  0
INSERT
  5
37D
  8
S_U_COLUMN_MAJOR
  2
U1
 10
7364.3444813573405554
 20
1658.3905876183150667
 30
0.0
 41
-1.0
  0
INSERT
  5
37E
  8
S_U_COLUMN_MAJOR
  2
U2
 10
6164.3444813573405554
 20
1658.3905876183150667
 30
0.0
  0
INSERT
  5
37F
  8
S_B_GIRDER
  2
B1
 10
439.3444813580821915
 20
1938.3905876183000601
 30
0.0
 50
270.0
  0
INSERT
  5
380
  8
S_D_GIRDER
  2
D1
 10
39.3444813573401717
 20
5088.3905876171511409
 30
0.0
 50
270.0
  0
INSERT
  5
381
  8
S_D_GIRDER
  2
D2
 10
1919.3444813573401007
 20
4950.8905876171511409
 30
0.0
 50
270.0
  0
INSERT
  5
382
  8
S_G_TRACK
  2
C100X50
 10
1889.3444813573401007
 20
2038.3905876183000601
 30
0.0
 50
90.0
  0
INSERT
  5
383
  8
S_G_TRACK
  2
C100X50
 10
2039.3444813573401007
 20
2038.3905876183000601
 30
0.0
 41
-1.0
 50
270.0
  0
INSERT
  5
384
  8
S_G_TRACK
  2
C100X50
 10
414.3444813573401007
 20
2038.3905876183000601
 30
0.0
 50
90.0
  0
INSERT
  5
385
  8
S_G_TRACK
  2
C100X50
 10
7439.3444813573405554
 20
2038.3905876183000601
 30
0.0
 41
-1.0
 50
270.0
  0
INSERT
  5
386
  8
S_G_TRACK
  2
C100X50
 10
7289.3444813573405554
 20
2038.3905876183000601
 30
0.0
 50
90.0000000000000284
  0
INSERT
  5
387
  8
S_G_TRACK
  2
C100X50
 10
1089.3444813573401007
 20
2038.3905876183000601
 30
0.0
 41
-1.0
 50
270.0
  0
INSERT
  5
388
  8
S_G_TRACK
  2
C100X50
 10
2695.5944813573401007
 20
2038.3905876183000601
 30
0.0
 41
-1.0
 50
270.0
  0
INSERT
  5
389
  8
S_G_TRACK
  2
C100X50
 10
3351.8444813573401007
 20
2038.3905876183000601
 30
0.0
 41
-1.0
 50
270.0
  0
INSERT
  5
38A
  8
S_G_TRACK
  2
C100X50
 10
4008.0944813573401007
 20
2038.3905876183000601
 30
0.0
 41
-1.0
 50
270.0
  0
INSERT
  5
38B
  8
S_G_TRACK
  2
C100X50
 10
4664.3444813573396459
 20
2038.3905876183000601
 30
0.0
 41
-1.0
 50
270.0
  0
INSERT
  5
38C
  8
S_G_TRACK
  2
C100X50
 10
5320.5944813573405554
 20
2038.3905876183000601
 30
0.0
 41
-1.0
 50
270.0
  0
INSERT
  5
38D
  8
S_G_TRACK
  2
C100X50
 10
5976.8444813573405554
 20
2038.3905876183000601
 30
0.0
 41
-1.0
 50
270.0
  0
INSERT
  5
38E
  8
S_G_TRACK
  2
C100X50
 10
6633.0944813573405554
 20
2038.3905876183000601
 30
0.0
 41
-1.0
 50
270.0
  0
INSERT
  5
38F
  8
S_G_TRACK
  2
C100X50
 10
1789.3444813573401007
 20
2038.3905876183000601
 30
0.0
 41
-1.0
 50
270.0
  0
INSERT
  5
390
  8
S_G_TRACK
  2
C100X50
 10
8239.3444813573405554
 20
2038.3905876183000601
 30
0.0
 50
90.0000000000000284
  0
INSERT
  5
391
  8
S_G_TRACK
  2
C100X50
 10
7539.3444813573405554
 20
2038.3905876183000601
 30
0.0
 50
90.0000000000000284
  0
INSERT
  5
392
  8
0_REFERENCE
  2
U2
 10
3164.3444813573401007
 20
1658.3905876183150667
 30
0.0
 41
-1.0
  0
INSERT
  5
393
  8
S_J_JUNCTION
  2
JP493
 10
4614.3444813573396459
 20
4968.3905876343806085
 30
0.0000000000000977
  0
INSERT
  5
394
  8
S_S_PURLIN_OF_ROOF
  2
Œ›∂•È›Ãı∂œ√Ê
 10
4664.3444813573396459
 20
5353.3905876183152941
 30
0.0
  0
INSERT
  5
395
  8
S_J_JUNCTION
  2
JPA
 10
1739.3444813573401007
 20
1893.3905876183000601
 30
0.0000000000000444
  0
INSERT
  5
396
  8
S_J_JUNCTION
  2
JPA
 10
1039.3444813573401007
 20
1893.3905876183000601
 30
0.0000000000000444
  0
INSERT
  5
397
  8
S_J_JUNCTION
  2
JPA
 10
2645.5944813573410102
 20
1893.3905876183000601
 30
0.0000000000000444
  0
INSERT
  5
398
  8
S_J_JUNCTION
  2
JPA
 10
3958.0944813573410102
 20
1893.3905876183000601
 30
0.0000000000000444
  0
INSERT
  5
399
  8
S_J_JUNCTION
  2
JPA
 10
3301.8444813573410102
 20
1893.3905876183000601
 30
0.0000000000000444
  0
INSERT
  5
39A
  8
S_J_JUNCTION
  2
JPA
 10
4614.3444813573396459
 20
1893.3905876183000601
 30
0.0000000000000444
  0
INSERT
  5
39B
  8
S_J_JUNCTION
  2
JPA
 10
5270.5944813573405554
 20
1893.3905876183000601
 30
0.0000000000000444
  0
INSERT
  5
39C
  8
S_J_JUNCTION
  2
JPA
 10
5926.8444813573405554
 20
1893.3905876183000601
 30
0.0000000000000444
  0
INSERT
  5
39D
  8
S_J_JUNCTION
  2
JPA
 10
6583.0944813573405554
 20
1893.3905876183000601
 30
0.0000000000000444
  0
INSERT
  5
39E
  8
S_J_JUNCTION
  2
JPA
 10
7589.3444813573405554
 20
1893.3905876183000601
 30
0.0000000000000444
 41
-1.0
  0
INSERT
  5
39F
  8
S_J_JUNCTION
  2
JPA
 10
8289.3444813573405554
 20
1893.3905876183000601
 30
0.0000000000000444
 41
-1.0
  0
INSERT
  5
3A0
  8
S_J_JUNCTION
  2
JP473
 10
5270.5944813573405554
 20
4968.3905876343951604
 30
0.0000000000000933
  0
INSERT
  5
3A1
  8
S_J_JUNCTION
  2
JP473
 10
3958.0944813573410102
 20
4968.3905876343951604
 30
0.0000000000000933
  0
INSERT
  5
3A2
  8
S_J_JUNCTION
  2
JP453
 10
3301.8444813573410102
 20
4968.3905876343660566
 30
0.0000000000000888
  0
INSERT
  5
3A3
  8
S_J_JUNCTION
  2
JP453
 10
5926.8444813573405554
 20
4968.3905876343660566
 30
0.0000000000000888
  0
INSERT
  5
3A4
  8
S_J_JUNCTION
  2
JP433
 10
2645.5944813573410102
 20
4968.3905876343660566
 30
0.0000000000000844
  0
INSERT
  5
3A5
  8
S_J_JUNCTION
  2
JP433
 10
6583.0944813573405554
 20
4968.3905876343660566
 30
0.0000000000000844
  0
INSERT
  5
3A6
  8
S_J_JUNCTION
  2
JP280
 10
8006.0111480241430399
 20
5068.3905876022654411
 30
0.0000000000000533
  0
INSERT
  5
3A7
  8
S_J_JUNCTION
  2
JP280
 10
1222.677814690536934
 20
5068.3905876022654411
 30
0.0000000000000533
  0
INSERT
  5
3A8
  8
S_J_JUNCTION
  2
JP260
 10
606.0111480239388584
 20
5068.3905876022363373
 30
0.0000000000000488
  0
INSERT
  5
3A9
  8
S_J_JUNCTION
  2
JP260
 10
8622.6778146907417977
 20
5068.3905876022363373
 30
0.0000000000000488
  0
INSERT
  5
3AA
  8
S_J_JUNCTION
  2
JXB
 10
2129.3444813573401007
 20
5113.3905876507506036
 30
0.0000000000000122
 50
270.0
  0
INSERT
  5
3AB
  8
S_J_JUNCTION
  2
JXB
 10
7199.3444813573396459
 20
5113.3905876507506036
 30
0.0000000000000122
 41
-1.0
 50
90.0
  0
INSERT
  5
3AC
  8
S_J_JUNCTION
  2
JXB
 10
2129.3444813573401007
 20
1938.3905876507510584
 30
0.0000000000000122
 50
270.0
  0
INSERT
  5
3AD
  8
S_J_JUNCTION
  2
JXB
 10
7199.3444813573396459
 20
1938.3905876507510584
 30
0.0000000000000122
 41
-1.0
 50
90.0
  0
INSERT
  5
3AE
  8
S_C_COLUMN_MINOR
  2
ZC1
 10
2014.3444813573689771
 20
-1287.8670253239229169
 30
0.0
  0
INSERT
  5
3AF
  8
S_C_COLUMN_MINOR
  2
ZC1
 10
1914.344481357281893
 20
-1287.8670253239229169
 30
0.0
 41
-1.0
  0
INSERT
  5
3B0
  8
S_C_COLUMN_MINOR
  2
ZC1
 10
7414.3444813573687497
 20
-1287.8670253239229169
 30
0.0
  0
INSERT
  5
3B1
  8
S_C_COLUMN_MINOR
  2
ZC1
 10
7314.3444813572832572
 20
-1287.8670253239229169
 30
0.0
 41
-1.0
  0
INSERT
  5
3B2
  8
S_C_COLUMN_MINOR
  2
ZC1
 10
514.3444813573402143
 20
-1287.8670253239658905
 30
0.0
  0
INSERT
  5
3B3
  8
S_C_COLUMN_MINOR
  2
ZC1
 10
8814.3444813573405554
 20
-1287.8670253239658905
 30
0.0
 41
-1.0
  0
INSERT
  5
3B4
  8
S_G_TRACK
  2
C100X50
 10
8914.3444813573405554
 20
2038.3905876183000601
 30
0.0
 41
-1.0
 50
270.0
  0
INSERT
  5
3B5
  8
S_C_COLUMN_MINOR
  2
CN1
 10
7257.558997640774578
 20
1895.3745840917858914
 30
0.0
 41
-1.0
 50
17.0769577892698514
  0
INSERT
  5
3B6
  8
0_REFERENCE
  2
CN1
 10
2071.1299650739051685
 20
1895.3745840917858914
 30
0.0
 50
342.9230422107301024
  0
INSERT
  5
3B7
  8
0
  2
JP240
 10
89.3444813573401717
 20
5018.3905876171511409
 30
0.0000000000000555
  0
INSERT
  5
3B8
  8
0
  2
JP240
 10
9239.3444813573405554
 20
5018.3905876171511409
 30
0.0000000000000555
 41
-1.0
  0
ENDSEC
  0
EOF
