  0
SECTION
  2
HEADER
  9
$ACADVER
  1
AC1009
  9
$INSBASE
 10
0.0
 20
0.0
 30
0.0
  9
$EXTMIN
 10
39.3444813573401717
 20
20.9852032874937287
 30
0.0
  9
$EXTMAX
 10
9289.3444813573405554
 20
5318.3905876183125656
 30
0.0
  9
$LIMMIN
 10
0.0
 20
0.0
  9
$LIMMAX
 10
12.0
 20
9.0
  9
$ORTHOMODE
 70
     1
  9
$REGENMODE
 70
     1
  9
$FILLMODE
 70
     1
  9
$QTEXTMODE
 70
     0
  9
$MIRRTEXT
 70
     0
  9
$DRAGMODE
 70
     2
  9
$LTSCALE
 40
1.0
  9
$OSMODE
 70
  2503
  9
$ATTMODE
 70
     1
  9
$TEXTSIZE
 40
0.2
  9
$TRACEWID
 40
0.05
  9
$TEXTSTYLE
  7
STANDARD
  9
$CLAYER
  8
0
  9
$CELTYPE
  6
BYLAYER
  9
$CECOLOR
 62
   256
  9
$DIMSCALE
 40
1.0
  9
$DIMASZ
 40
0.18
  9
$DIMEXO
 40
0.0625
  9
$DIMDLI
 40
0.38
  9
$DIMRND
 40
0.0
  9
$DIMDLE
 40
0.0
  9
$DIMEXE
 40
0.18
  9
$DIMTP
 40
0.0
  9
$DIMTM
 40
0.0
  9
$DIMTXT
 40
0.18
  9
$DIMCEN
 40
0.09
  9
$DIMTSZ
 40
0.0
  9
$DIMTOL
 70
     0
  9
$DIMLIM
 70
     0
  9
$DIMTIH
 70
     1
  9
$DIMTOH
 70
     1
  9
$DIMSE1
 70
     0
  9
$DIMSE2
 70
     0
  9
$DIMTAD
 70
     0
  9
$DIMZIN
 70
     0
  9
$DIMBLK
  1

  9
$DIMASO
 70
     1
  9
$DIMSHO
 70
     1
  9
$DIMPOST
  1

  9
$DIMAPOST
  1

  9
$DIMALT
 70
     0
  9
$DIMALTD
 70
     2
  9
$DIMALTF
 40
25.3999999999999986
  9
$DIMLFAC
 40
1.0
  9
$DIMTOFL
 70
     0
  9
$DIMTVP
 40
0.0
  9
$DIMTIX
 70
     0
  9
$DIMSOXD
 70
     0
  9
$DIMSAH
 70
     0
  9
$DIMBLK1
  1

  9
$DIMBLK2
  1

  9
$DIMSTYLE
  2
STANDARD
  9
$DIMCLRD
 70
     0
  9
$DIMCLRE
 70
     0
  9
$DIMCLRT
 70
     0
  9
$DIMTFAC
 40
1.0
  9
$DIMGAP
 40
0.09
  9
$LUNITS
 70
     2
  9
$LUPREC
 70
     4
  9
$SKETCHINC
 40
0.1
  9
$FILLETRAD
 40
0.0
  9
$AUNITS
 70
     0
  9
$AUPREC
 70
     0
  9
$MENU
  1
.
  9
$ELEVATION
 40
0.0
  9
$PELEVATION
 40
0.0
  9
$THICKNESS
 40
0.0
  9
$LIMCHECK
 70
     0
  9
$BLIPMODE
 70
     0
  9
$CHAMFERA
 40
0.0
  9
$CHAMFERB
 40
0.0
  9
$SKPOLY
 70
     0
  9
$TDCREATE
 40
2458484.5697569451294839
  9
$TDUPDATE
 40
2458487.8083333331160247
  9
$TDINDWG
 40
0.218275463
  9
$TDUSRTIMER
 40
0.2182638889
  9
$USRTIMER
 70
     1
  9
$ANGBASE
 50
0.0
  9
$ANGDIR
 70
     0
  9
$PDMODE
 70
     0
  9
$PDSIZE
 40
0.0
  9
$PLINEWID
 40
0.0
  9
$COORDS
 70
     1
  9
$SPLFRAME
 70
     0
  9
$SPLINETYPE
 70
     6
  9
$SPLINESEGS
 70
     8
  9
$ATTDIA
 70
     1
  9
$ATTREQ
 70
     1
  9
$HANDLING
 70
     1
  9
$HANDSEED
  5
78A
  9
$SURFTAB1
 70
     6
  9
$SURFTAB2
 70
     6
  9
$SURFTYPE
 70
     6
  9
$SURFU
 70
     6
  9
$SURFV
 70
     6
  9
$UCSNAME
  2

  9
$UCSORG
 10
0.0
 20
0.0
 30
0.0
  9
$UCSXDIR
 10
1.0
 20
0.0
 30
0.0
  9
$UCSYDIR
 10
0.0
 20
1.0
 30
0.0
  9
$PUCSNAME
  2

  9
$PUCSORG
 10
0.0
 20
0.0
 30
0.0
  9
$PUCSXDIR
 10
1.0
 20
0.0
 30
0.0
  9
$PUCSYDIR
 10
0.0
 20
1.0
 30
0.0
  9
$USERI1
 70
     0
  9
$USERI2
 70
     0
  9
$USERI3
 70
     0
  9
$USERI4
 70
     0
  9
$USERI5
 70
     0
  9
$USERR1
 40
0.0
  9
$USERR2
 40
0.0
  9
$USERR3
 40
0.0
  9
$USERR4
 40
0.0
  9
$USERR5
 40
0.0
  9
$WORLDVIEW
 70
     1
  9
$SHADEDGE
 70
     3
  9
$SHADEDIF
 70
    70
  9
$TILEMODE
 70
     1
  9
$MAXACTVP
 70
    64
  9
$PLIMCHECK
 70
     0
  9
$PEXTMIN
 10
0.0
 20
0.0
 30
0.0
  9
$PEXTMAX
 10
0.0
 20
0.0
 30
0.0
  9
$PLIMMIN
 10
0.0
 20
0.0
  9
$PLIMMAX
 10
12.0
 20
9.0
  9
$UNITMODE
 70
     0
  9
$VISRETAIN
 70
     1
  9
$PLINEGEN
 70
     0
  9
$PSLTSCALE
 70
     1
  0
ENDSEC
  0
SECTION
  2
TABLES
  0
TABLE
  2
VPORT
 70
     1
  0
VPORT
  2
*ACTIVE
 70
     0
 10
0.0
 20
0.0
 11
1.0
 21
1.0
 12
5665.3821357790584443
 22
4098.1854183796931466
 13
0.0
 23
0.0
 14
0.5
 24
0.5
 15
0.5
 25
0.5
 16
0.0
 26
0.0
 36
1.0
 17
0.0
 27
0.0
 37
0.0
 40
13232.5271900734696828
 41
1.573446327683615
 42
50.0
 43
0.0
 44
0.0
 50
0.0
 51
0.0
 71
     0
 72
  1000
 73
     1
 74
     3
 75
     0
 76
     1
 77
     0
 78
     0
  0
ENDTAB
  0
TABLE
  2
LTYPE
 70
     1
  0
LTYPE
  2
CONTINUOUS
 70
     0
  3
Solid line
 72
    65
 73
     0
 40
0.0
  0
ENDTAB
  0
TABLE
  2
LAYER
 70
    10
  0
LAYER
  2
0
 70
     0
 62
     7
  6
CONTINUOUS
  0
LAYER
  2
S_U_COLUMN_MAJOR
 70
     0
 62
     1
  6
CONTINUOUS
  0
LAYER
  2
S_C_COLUMN_MINOR
 70
     0
 62
     3
  6
CONTINUOUS
  0
LAYER
  2
S_J_JUNCTION
 70
     0
 62
   150
  6
CONTINUOUS
  0
LAYER
  2
S_B_GIRDER
 70
     0
 62
     2
  6
CONTINUOUS
  0
LAYER
  2
0-PRINTLESS
 70
     0
 62
    30
  6
CONTINUOUS
  0
LAYER
  2
0_REFERENCE
 70
     0
 62
   251
  6
CONTINUOUS
  0
LAYER
  2
S_D_GIRDER
 70
     0
 62
    31
  6
CONTINUOUS
  0
LAYER
  2
S_G_TRACK
 70
     0
 62
     4
  6
CONTINUOUS
  0
LAYER
  2
S_S_PURLIN_OF_ROOF
 70
     0
 62
     4
  6
CONTINUOUS
  0
ENDTAB
  0
TABLE
  2
STYLE
 70
     5
  0
STYLE
  2
STANDARD
 70
     0
 40
0.0
 41
1.0
 50
0.0
 71
     0
 42
0.2
  3
txt
  4

  0
STYLE
  2
ANNOTATIVE
 70
     0
 40
0.0
 41
1.0
 50
0.0
 71
     0
 42
0.2
  3
txt
  4

  0
STYLE
  2
MICROSOFT_YAHEI
 70
     0
 40
0.0
 41
1.0
 50
0.0
 71
     0
 42
1000.0
  3
txt
  4

  0
STYLE
  2
TSSD_REIN
 70
     0
 40
0.0
 41
0.7
 50
0.0
 71
     0
 42
500.0
  3
tssdeng.shx
  4
tssdchn.shx
  0
STYLE
  2
__
 70
     0
 40
0.0
 41
1.0
 50
0.0
 71
     0
 42
2.5
  3
txt
  4

  0
ENDTAB
  0
TABLE
  2
VIEW
 70
     1
  0
ENDTAB
  0
TABLE
  2
UCS
 70
     0
  0
ENDTAB
  0
TABLE
  2
APPID
 70
    16
  0
APPID
  2
ACAD
 70
     0
  0
APPID
  2
ACADANNOTATIVE
 70
     0
  0
APPID
  2
ACADANNOPO
 70
     0
  0
APPID
  2
ACAD_DSTYLE_DIMJAG
 70
     0
  0
APPID
  2
ACAD_DSTYLE_DIMTALN
 70
     0
  0
APPID
  2
ACAD_MLEADERVER
 70
     0
  0
APPID
  2
ACAD_NAV_VCDISPLAY
 70
     0
  0
APPID
  2
ACAD_PSEXT
 70
     0
  0
APPID
  2
ACDBDYNAMICBLOCKGUID
 70
     0
  0
APPID
  2
ACAECLAYERSTANDARD
 70
     0
  0
APPID
  2
ACCMTRANSPARENCY
 70
     0
  0
APPID
  2
ACADSTRINGINFO
 70
     0
  0
APPID
  2
ACAD_DSTYLE_DIMBREAK
 70
     0
  0
APPID
  2
CONTENTBLOCKICON
 70
     0
  0
APPID
  2
ACAD_EXEMPT_FROM_CAD_STANDARDS
 70
     0
  0
APPID
  2
ACAUTHENVIRON
 70
     0
  0
ENDTAB
  0
TABLE
  2
DIMSTYLE
 70
     8
  0
DIMSTYLE
  2
STANDARD
 70
     0
  3

  4

  5

  6

  7

 40
1.0
 41
0.18
 42
0.0625
 43
0.38
 44
0.18
 45
0.0
 46
0.0
 47
0.0
 48
0.0
140
0.18
141
0.09
142
0.0
143
25.3999999999999986
144
1.0
145
0.0
146
1.0
147
0.09
 71
     0
 72
     0
 73
     1
 74
     1
 75
     0
 76
     0
 77
     0
 78
     0
170
     0
171
     2
172
     0
173
     0
174
     0
175
     0
176
     0
177
     0
178
     0
  0
DIMSTYLE
  2
ANNOTATIVE
 70
     0
  3

  4

  5

  6

  7

 40
0.0
 41
0.18
 42
0.0625
 43
0.38
 44
0.18
 45
0.0
 46
0.0
 47
0.0
 48
0.0
140
0.18
141
0.09
142
0.0
143
25.3999999999999986
144
1.0
145
0.0
146
1.0
147
0.09
 71
     0
 72
     0
 73
     1
 74
     1
 75
     0
 76
     0
 77
     0
 78
     0
170
     0
171
     2
172
     0
173
     0
174
     0
175
     0
176
     0
177
     0
178
     0
  0
DIMSTYLE
  2
1_TO_100
 70
     0
  3

  4

  5

  6

  7

 40
1.0
 41
50.0
 42
100.0
 43
0.0
 44
0.0
 45
0.0
 46
0.0
 47
0.0
 48
0.0
140
200.0
141
1.0
142
0.0
143
0.03937007874016
144
1.0
145
0.0
146
1.0
147
50.0
 71
     0
 72
     0
 73
     0
 74
     0
 75
     0
 76
     0
 77
     2
 78
     8
170
     0
171
     3
172
     1
173
     0
174
     0
175
     0
176
   256
177
   256
178
   256
  0
DIMSTYLE
  2
1_TO_30
 70
     0
  3

  4

  5

  6

  7

 40
1.0
 41
15.0
 42
30.0
 43
0.0
 44
0.0
 45
0.0
 46
0.0
 47
0.0
 48
0.0
140
60.0
141
1.0
142
0.0
143
0.03937007874016
144
1.0
145
0.0
146
1.0
147
15.0
 71
     0
 72
     0
 73
     0
 74
     0
 75
     0
 76
     0
 77
     2
 78
     8
170
     0
171
     3
172
     1
173
     0
174
     0
175
     0
176
   256
177
   256
178
   256
  0
DIMSTYLE
  2
1_TO_10
 70
     0
  3

  4

  5

  6

  7

 40
1.0
 41
5.0
 42
10.0
 43
0.0
 44
0.0
 45
0.0
 46
0.0
 47
0.0
 48
0.0
140
20.0
141
1.0
142
0.0
143
0.03937007874016
144
1.0
145
0.0
146
1.0
147
5.0
 71
     0
 72
     0
 73
     0
 74
     0
 75
     0
 76
     0
 77
     2
 78
     8
170
     0
171
     3
172
     1
173
     0
174
     0
175
     0
176
   256
177
   256
178
   256
  0
DIMSTYLE
  2
1_TO_5
 70
     0
  3

  4

  5

  6

  7

 40
1.0
 41
2.5
 42
5.0
 43
0.0
 44
0.0
 45
0.0
 46
0.0
 47
0.0
 48
0.0
140
10.0
141
1.0
142
0.0
143
0.03937007874016
144
1.0
145
0.0
146
1.0
147
2.5
 71
     0
 72
     0
 73
     0
 74
     0
 75
     0
 76
     0
 77
     2
 78
     8
170
     0
171
     3
172
     1
173
     0
174
     0
175
     0
176
   256
177
   256
178
   256
  0
DIMSTYLE
  2
1-5
 70
     0
  3

  4

  5

  6

  7

 40
1.0
 41
3.5
 42
10.5
 43
0.0
 44
8.75
 45
0.0
 46
0.0
 47
0.0
 48
0.0
140
10.4124999999999996
141
0.09
142
0.0
143
25.3999999999999986
144
1.0
145
0.0
146
1.0
147
4.4187500000000011
 71
     0
 72
     0
 73
     0
 74
     0
 75
     0
 76
     0
 77
     1
 78
     0
170
     0
171
     2
172
     1
173
     0
174
     1
175
     0
176
     0
177
     0
178
     7
  0
DIMSTYLE
  2
1-10
 70
     0
  3

  4

  5

  6

  7

 40
1.0
 41
7.5
 42
22.5
 43
0.0
 44
18.75
 45
0.0
 46
0.0
 47
0.0
 48
0.0
140
22.3125
141
0.09
142
0.0
143
25.3999999999999986
144
1.0
145
0.0
146
1.0
147
7.5
 71
     0
 72
     0
 73
     0
 74
     0
 75
     0
 76
     0
 77
     1
 78
     0
170
     0
171
     2
172
     1
173
     0
174
     1
175
     0
176
     0
177
     0
178
     7
  0
ENDTAB
  0
ENDSEC
  0
SECTION
  2
BLOCKS
  0
BLOCK
  8
0
  2
$MODEL_SPACE
 70
     0
 10
0.0
 20
0.0
 30
0.0
  3
$MODEL_SPACE
  1

  0
ENDBLK
  5
562
  8
0
  0
BLOCK
 67
     1
  8
0
  2
$PAPER_SPACE
 70
     0
 10
0.0
 20
0.0
 30
0.0
  3
$PAPER_SPACE
  1

  0
ENDBLK
  5
55E
 67
     1
  8
0
  0
BLOCK
  8
0
  2
C100X50
 70
     0
 10
0.0
 20
0.0
 30
0.0
  3
C100X50
  1

  0
LINE
  5
208
  8
0
 10
50.0
 20
-25.0
 30
0.0
 11
-50.0
 21
-25.0
 31
0.0
  0
LINE
  5
209
  8
0
 10
50.0000000005820411
 20
25.0
 30
0.0
 11
50.0000000005820411
 21
-25.0
 31
0.0
  0
LINE
  5
20A
  8
0
 10
50.0
 20
25.0
 30
0.0
 11
50.0
 21
-25.0
 31
0.0
  0
LINE
  5
20B
  8
0
 10
50.0
 20
25.0
 30
0.0
 11
30.0
 21
25.0
 31
0.0
  0
LINE
  5
20C
  8
0
 10
-30.0
 20
25.0
 30
0.0
 11
-50.0
 21
25.0
 31
0.0
  0
LINE
  5
20D
  8
0
 10
-50.0
 20
25.0
 30
0.0
 11
-50.0
 21
-25.0
 31
0.0
  0
LINE
  5
20E
  8
0
 62
   251
 10
10.0
 20
0.0
 30
0.0
 11
-10.0
 21
0.0
 31
0.0
  0
LINE
  5
20F
  8
0
 62
   251
 10
-0.0000000000000022
 20
-10.0
 30
0.0
 11
0.0000000000000022
 21
10.0
 31
0.0
  0
ENDBLK
  5
210
  8
0
  0
BLOCK
  8
0
  2
JPA
 70
     0
 10
0.0
 20
0.0
 30
0.0
  3
JPA
  1

  0
LINE
  5
215
  8
S_J_JUNCTION
 10
0.0
 20
0.0
 30
0.0
 11
0.0
 21
190.0
 31
-0.0000000000000422
  0
INSERT
  5
216
  8
0
  2
*U4
 10
0.0
 20
0.0
 30
0.0
  0
ENDBLK
  5
219
  8
0
  0
BLOCK
  8
0
  2
*U4
 70
     1
 10
0.0
 20
0.0
 30
0.0
  3
*U4
  1

  0
TEXT
  5
492
  8
S_J_JUNCTION
 10
-30.52207651024219
 20
-50.0
 30
0.0000000000000031
 40
50.0
  1
JPA
 41
0.7
  7
TSSD_REIN
  0
ENDBLK
  5
494
  8
0
  0
BLOCK
  8
0
  2
JXB
 70
     0
 10
0.0
 20
0.0
 30
0.0
  3
JXB
  1

  0
CIRCLE
  5
21E
  8
S_J_JUNCTION
 10
0.0000000158324838
 20
50.0
 30
-0.0000000000000061
 40
8.0
  0
POLYLINE
  5
21F
  8
S_J_JUNCTION
 66
     1
 10
0.0
 20
0.0
 30
0.0
 70
     1
  0
VERTEX
  5
743
  8
S_J_JUNCTION
 10
50.0000000009313226
 20
0.0
 30
0.0
  0
VERTEX
  5
744
  8
S_J_JUNCTION
 10
-50.0000000009313226
 20
0.0
 30
0.0
  0
VERTEX
  5
745
  8
S_J_JUNCTION
 10
-50.0000000006984919
 20
200.0
 30
0.0
  0
VERTEX
  5
746
  8
S_J_JUNCTION
 10
50.0000000009313226
 20
200.0
 30
0.0
  0
SEQEND
  5
747
  8
S_J_JUNCTION
  0
CIRCLE
  5
220
  8
S_J_JUNCTION
 10
0.0000000158324838
 20
150.0
 30
-0.0000000000000061
 40
8.0
  0
INSERT
  5
221
  8
0
  2
*U6
 10
0.0
 20
0.0
 30
0.0
  0
INSERT
  5
222
  8
0
  2
*U7
 10
0.0
 20
0.0
 30
0.0
  0
ENDBLK
  5
223
  8
0
  0
BLOCK
  8
0
  2
*U6
 70
     1
 10
0.0
 20
0.0
 30
0.0
  3
*U6
  1

  0
TEXT
  5
49C
  8
S_J_JUNCTION
 10
50.2000000009313325
 20
-0.0075034106412007
 30
0.0
 40
0.2
  1
JXb
 50
89.9999999999999858
  0
ENDBLK
  5
49E
  8
0
  0
BLOCK
  8
0
  2
*U7
 70
     1
 10
0.0
 20
0.0
 30
0.0
  3
*U7
  1

  0
TEXT
  5
4A0
  8
S_J_JUNCTION
 10
100.4865622540710035
 20
69.0673184606129809
 30
-0.4957693594318461
 40
50.0
  1
JXB
 50
89.9999999999999147
 41
0.7
  7
TSSD_REIN
  0
ENDBLK
  5
4A2
  8
0
  0
BLOCK
  8
0
  2
_ARCHTICK
 70
     0
 10
0.0
 20
0.0
 30
0.0
  3
_ARCHTICK
  1

  0
POLYLINE
  5
226
  8
0
  6
BYBLOCK
 62
     0
 66
     1
 10
0.0
 20
0.0
 30
0.0
 40
0.15
 41
0.15
  0
VERTEX
  5
748
  8
0
  6
BYBLOCK
 62
     0
 10
-0.5
 20
-0.5
 30
0.0
  0
VERTEX
  5
749
  8
0
  6
BYBLOCK
 62
     0
 10
0.5
 20
0.5
 30
0.0
  0
SEQEND
  5
74A
  8
0
  6
BYBLOCK
 62
     0
  0
ENDBLK
  5
22A
  8
0
  0
BLOCK
  8
0
  2
B1
 70
     0
 10
0.0
 20
0.0
 30
0.0
  3
B1
  1

  0
INSERT
  5
22F
  8
0
  2
*U10
 10
0.0
 20
0.0
 30
0.0
  0
LINE
  5
230
  8
0
 10
0.000000000007276
 20
-20.0000000007421512
 30
0.0
 11
-0.0000000000804903
 21
8469.9999999992614903
 31
0.0
  0
ENDBLK
  5
24A
  8
0
  0
BLOCK
  8
0
  2
*U10
 70
     1
 10
0.0
 20
0.0
 30
0.0
  3
*U10
  1

  0
TEXT
  5
4A8
  8
0
 10
311.8356315857237178
 20
418.949024108849585
 30
0.0
 40
300.0
  1
B1
 50
90.0
 41
0.7
  7
TSSD_REIN
  0
ENDBLK
  5
4AA
  8
0
  0
BLOCK
  8
0
  2
C1
 70
     0
 10
0.0
 20
0.0
 30
0.0
  3
C1
  1

  0
LINE
  5
24F
  8
0
 10
0.0
 20
-200.0
 30
0.0
 11
0.0
 21
3499.9999999839269549
 31
0.0
  0
INSERT
  5
250
  8
0
  2
*U12
 10
0.0
 20
0.0
 30
0.0
  0
ENDBLK
  5
255
  8
0
  0
BLOCK
  8
0
  2
*U12
 70
     1
 10
0.0
 20
0.0
 30
0.0
  3
*U12
  1

  0
TEXT
  5
4AD
  8
0
 10
-15.3150255846558103
 20
-541.6849451906164177
 30
0.0
 40
300.0
  1
C1
 41
0.7
  7
TSSD_REIN
  0
ENDBLK
  5
4AF
  8
0
  0
BLOCK
  8
0
  2
U1
 70
     0
 10
0.0
 20
0.0
 30
0.0
  3
U1
  1

  0
LINE
  5
25B
  8
0
 10
0.0
 20
-200.0
 30
0.0
 11
0.0
 21
3660.0
 31
0.0
  0
INSERT
  5
25C
  8
0
  2
*U14
 10
0.0
 20
0.0
 30
0.0
  0
ENDBLK
  5
263
  8
0
  0
BLOCK
  8
0
  2
*U14
 70
     1
 10
0.0
 20
0.0
 30
0.0
  3
*U14
  1

  0
TEXT
  5
4B2
  8
0
 10
-15.3150255846558103
 20
-573.528723910858389
 30
0.0
 40
300.0
  1
U1
 41
0.7
  7
TSSD_REIN
  0
ENDBLK
  5
4B4
  8
0
  0
BLOCK
  8
0
  2
U2
 70
     0
 10
0.0
 20
0.0
 30
0.0
  3
U2
  1

  0
LINE
  5
269
  8
0
 10
0.0000000000145519
 20
0.0
 30
0.0
 11
0.0
 21
3499.9999999988358468
 31
0.0
  0
INSERT
  5
26A
  8
0
  2
*U16
 10
0.0
 20
0.0
 30
0.0
  0
ENDBLK
  5
26E
  8
0
  0
BLOCK
  8
0
  2
*U16
 70
     1
 10
0.0
 20
0.0
 30
0.0
  3
*U16
  1

  0
TEXT
  5
4B7
  8
0
 10
-15.3150255846558103
 20
-364.7437093098416199
 30
0.0
 40
300.0
  1
U2
 41
0.7
  7
TSSD_REIN
  0
ENDBLK
  5
4B9
  8
0
  0
BLOCK
  8
0
  2
CN1
 70
     0
 10
0.0
 20
0.0
 30
0.0
  3
CN1
  1

  0
LINE
  5
273
  8
0
 10
0.0
 20
0.0
 30
0.0
 11
-0.0000000000145519
 21
3359.1321478002209915
 31
0.0
  0
INSERT
  5
274
  8
0
  2
*U18
 10
0.0
 20
0.0
 30
0.0
 50
0.0000000000000032
  0
ENDBLK
  5
277
  8
0
  0
BLOCK
  8
0
  2
*U18
 70
     1
 10
0.0
 20
0.0
 30
0.0
  3
*U18
  1

  0
TEXT
  5
4BC
  8
0
 10
-32.951230596168898
 20
825.8833539527981884
 30
0.0
 40
300.0
  1
CN1
 50
90.0
 41
0.7
  7
TSSD_REIN
  0
ENDBLK
  5
4BE
  8
0
  0
BLOCK
  8
0
  2
D1
 70
     0
 10
0.0
 20
0.0
 30
0.0
  3
D1
  1

  0
LINE
  5
27C
  8
0
 10
0.0
 20
0.0
 30
0.0
 11
0.000000000007276
 21
9250.0
 31
0.0
  0
INSERT
  5
27D
  8
0
  2
*U20
 10
0.0
 20
0.0
 30
0.0
  0
ENDBLK
  5
299
  8
0
  0
BLOCK
  8
0
  2
*U20
 70
     1
 10
0.0
 20
0.0
 30
0.0
  3
*U20
  1

  0
TEXT
  5
4C1
  8
0
 10
347.9747219543205006
 20
202.2938441255246005
 30
0.0
 40
300.0
  1
D1
 50
90.0
 41
0.7
  7
TSSD_REIN
  0
ENDBLK
  5
4C3
  8
0
  0
BLOCK
  8
0
  2
D2
 70
     0
 10
0.0
 20
0.0
 30
0.0
  3
D2
  1

  0
LINE
  5
29E
  8
0
 10
0.0
 20
0.0
 30
0.0
 11
-0.0000000000081855
 21
5490.0
 31
0.0
  0
INSERT
  5
29F
  8
0
  2
*U22
 10
0.0
 20
0.0
 30
0.0
  0
ENDBLK
  5
2AB
  8
0
  0
BLOCK
  8
0
  2
*U22
 70
     1
 10
0.0
 20
0.0
 30
0.0
  3
*U22
  1

  0
TEXT
  5
4C6
  8
0
 10
342.9783216540236026
 20
202.2938441255246005
 30
0.0
 40
300.0
  1
D2
 50
90.0
 41
0.7
  7
TSSD_REIN
  0
ENDBLK
  5
4C8
  8
0
  0
BLOCK
  8
0
  2
JP493
 70
     0
 10
0.0
 20
0.0
 30
0.0
  3
JP493
  1

  0
LINE
  5
2B0
  8
S_J_JUNCTION
 10
0.0000000000145519
 20
-62.500000033302058
 30
0.0000000000000139
 11
0.0
 21
429.9999999839345719
 31
-0.0000000000000955
  0
INSERT
  5
2B1
  8
0
  2
*U24
 10
0.0
 20
0.0
 30
0.0
  0
LINE
  5
2B2
  8
S_J_JUNCTION
 10
-25.0
 20
384.9999999839346856
 30
-0.0000000000000977
 11
25.0
 21
384.9999999839346856
 31
-0.0000000000000977
  0
LINE
  5
2B3
  8
S_J_JUNCTION
 10
-17.6776695296648505
 20
127.3223304542698031
 30
-0.0000000000000977
 11
17.6776695296648505
 21
162.6776695135993975
 31
-0.0000000000000977
  0
LINE
  5
2B4
  8
S_J_JUNCTION
 10
-17.6776695296648505
 20
-35.1776695468943217
 30
-0.0000000000000977
 11
17.6776695296648505
 21
0.1776695124353864
 31
-0.0000000000000977
  0
LINE
  5
2B5
  8
S_J_JUNCTION
 10
-17.6776695296648505
 20
77.3223304542698031
 30
-0.0000000000000977
 11
17.6776695296648505
 21
112.677669513599497
 31
-0.0000000000000977
  0
ENDBLK
  5
2B6
  8
0
  0
BLOCK
  8
0
  2
*U24
 70
     1
 10
0.0
 20
0.0
 30
0.0
  3
*U24
  1

  0
TEXT
  5
4CB
  8
S_J_JUNCTION
 10
-155.7046975163974025
 20
-109.430043262022096
 30
-0.0000000000000502
 40
50.0
  1
JP493
 41
0.7
  7
TSSD_REIN
  0
ENDBLK
  5
4CD
  8
0
  0
BLOCK
  8
0
  2
______
 70
     0
 10
0.0
 20
0.0
 30
0.0
  3
______
  1

1001
ACADSTRINGINFO
1000
MIFCodePage
1070
     5
  0
INSERT
  5
2B9
  8
S_G_TRACK
  2
C100X50
 10
-4625.0
 20
-140.0000000011640964
 30
0.0
 41
-1.0
 50
270.0
  0
INSERT
  5
2BA
  8
S_G_TRACK
  2
C100X50
 10
2775.0
 20
-80.0
 30
0.0
 41
-1.0
 50
270.0
  0
INSERT
  5
2BB
  8
S_G_TRACK
  2
C100X50
 10
2625.0
 20
-80.0
 30
0.0
 50
90.0000000000000568
  0
INSERT
  5
2BC
  8
S_G_TRACK
  2
C100X50
 10
-1968.75
 20
-60.0
 30
0.0
 41
-1.0
 50
270.0
  0
INSERT
  5
2BD
  8
S_G_TRACK
  2
C100X50
 10
-1312.5
 20
-40.0
 30
0.0
 41
-1.0
 50
270.0
  0
INSERT
  5
2BE
  8
S_G_TRACK
  2
C100X50
 10
-656.25
 20
-20.0
 30
0.0
 41
-1.0
 50
270.0
  0
INSERT
  5
2BF
  8
S_G_TRACK
  2
C100X50
 10
0.0
 20
0.0
 30
0.0
 41
-1.0
 50
270.0
  0
INSERT
  5
2C0
  8
S_G_TRACK
  2
C100X50
 10
656.25
 20
-20.0
 30
0.0
 41
-1.0
 50
270.0
  0
INSERT
  5
2C1
  8
S_G_TRACK
  2
C100X50
 10
1312.5
 20
-40.0
 30
0.0
 41
-1.0
 50
270.0
  0
INSERT
  5
2C2
  8
S_G_TRACK
  2
C100X50
 10
1968.75
 20
-60.0
 30
0.0
 41
-1.0
 50
270.0
  0
INSERT
  5
2C3
  8
S_G_TRACK
  2
C100X50
 10
-2775.0
 20
-80.0
 30
0.0
 50
90.0
  0
INSERT
  5
2C4
  8
S_G_TRACK
  2
C100X50
 10
-2625.0
 20
-80.0
 30
0.0
 41
-1.0
 50
270.0
  0
INSERT
  5
2C5
  8
S_G_TRACK
  2
C100X50
 10
-4008.3333333334007875
 20
-120.0000000011640964
 30
0.0
 41
-1.0
 50
270.0
  0
INSERT
  5
2C6
  8
S_G_TRACK
  2
C100X50
 10
-3391.6666666668029393
 20
-100.0000000011640964
 30
0.0
 41
-1.0
 50
270.0
  0
INSERT
  5
2C7
  8
S_G_TRACK
  2
C100X50
 10
4625.0
 20
-140.0000000011640964
 30
0.0
 50
90.0000000000000568
  0
INSERT
  5
2C8
  8
S_G_TRACK
  2
C100X50
 10
4008.3333333334007875
 20
-120.0000000011640964
 30
0.0
 41
-1.0
 50
270.0
  0
INSERT
  5
2C9
  8
S_G_TRACK
  2
C100X50
 10
3391.6666666668029393
 20
-100.0000000011640964
 30
0.0
 41
-1.0
 50
270.0
  0
ENDBLK
  5
2CA
  8
0
  0
BLOCK
  8
0
  2
JP473
 70
     0
 10
0.0
 20
0.0
 30
0.0
  3
JP473
  1

  0
LINE
  5
2CF
  8
S_J_JUNCTION
 10
0.0
 20
-62.5000000333166099
 30
0.0000000000000139
 11
0.0
 21
409.9999999839200768
 31
-0.000000000000091
  0
INSERT
  5
2D0
  8
0
  2
*U27
 10
0.0
 20
0.0
 30
0.0
  0
LINE
  5
2D1
  8
S_J_JUNCTION
 10
-25.0
 20
364.9999999839200768
 30
-0.0000000000000933
 11
25.0
 21
364.9999999839200768
 31
-0.0000000000000933
  0
LINE
  5
2D2
  8
S_J_JUNCTION
 10
-17.6776695296648505
 20
127.3223304542480037
 30
-0.0000000000000933
 11
17.6776695296648505
 21
162.6776695135777118
 31
-0.0000000000000933
  0
LINE
  5
2D3
  8
S_J_JUNCTION
 10
-17.6776695296648505
 20
-35.1776695469088807
 30
-0.0000000000000933
 11
17.6776695296648505
 21
0.1776695124208345
 31
-0.0000000000000933
  0
LINE
  5
2D4
  8
S_J_JUNCTION
 10
-17.6776695296648505
 20
77.3223304542480037
 30
-0.0000000000000933
 11
17.6776695296648505
 21
112.6776695135776976
 31
-0.0000000000000933
  0
ENDBLK
  5
2D5
  8
0
  0
BLOCK
  8
0
  2
*U27
 70
     1
 10
0.0
 20
0.0
 30
0.0
  3
*U27
  1

  0
TEXT
  5
4D1
  8
S_J_JUNCTION
 10
-155.7046975163974025
 20
-91.8125938918237665
 30
-0.0000000000000457
 40
50.0
  1
JP473
 41
0.7
  7
TSSD_REIN
  0
ENDBLK
  5
4D3
  8
0
  0
BLOCK
  8
0
  2
JP453
 70
     0
 10
0.0
 20
0.0
 30
0.0
  3
JP453
  1

  0
LINE
  5
2DA
  8
S_J_JUNCTION
 10
0.000000000007276
 20
-62.500000033302058
 30
0.0000000000000139
 11
0.0
 21
389.9999999839420184
 31
-0.0000000000000866
  0
INSERT
  5
2DB
  8
0
  2
*U29
 10
0.0
 20
0.0
 30
0.0
  0
LINE
  5
2DC
  8
S_J_JUNCTION
 10
-25.0
 20
344.9999999839420184
 30
-0.0000000000000888
 11
25.0
 21
344.9999999839420184
 31
-0.0000000000000888
  0
LINE
  5
2DD
  8
S_J_JUNCTION
 10
-17.6776695296648505
 20
127.3223304542698031
 30
-0.0000000000000888
 11
17.6776695296648505
 21
162.6776695135993975
 31
-0.0000000000000888
  0
LINE
  5
2DE
  8
S_J_JUNCTION
 10
-17.67766952967213
 20
-35.1776695468943217
 30
-0.0000000000000888
 11
17.677669529657571
 21
0.1776695124353864
 31
-0.0000000000000888
  0
LINE
  5
2DF
  8
S_J_JUNCTION
 10
-17.6776695296648505
 20
77.3223304542698031
 30
-0.0000000000000888
 11
17.6776695296648505
 21
112.677669513599497
 31
-0.0000000000000888
  0
ENDBLK
  5
2E0
  8
0
  0
BLOCK
  8
0
  2
*U29
 70
     1
 10
0.0
 20
0.0
 30
0.0
  3
*U29
  1

  0
TEXT
  5
4D6
  8
S_J_JUNCTION
 10
-155.7046975163974025
 20
-104.7529200190255949
 30
-0.0000000000000413
 40
50.0
  1
JP453
 41
0.7
  7
TSSD_REIN
  0
ENDBLK
  5
4D8
  8
0
  0
BLOCK
  8
0
  2
JP433
 70
     0
 10
0.0
 20
0.0
 30
0.0
  3
JP433
  1

  0
LINE
  5
2E5
  8
S_J_JUNCTION
 10
-0.000000000007276
 20
-62.5000000172221704
 30
0.0000000000000139
 11
0.0
 21
369.9999999839420184
 31
-0.0000000000000822
  0
INSERT
  5
2E6
  8
0
  2
*U31
 10
0.0
 20
0.0
 30
0.0
  0
LINE
  5
2E7
  8
S_J_JUNCTION
 10
-25.0
 20
324.9999999839420184
 30
-0.0000000000000844
 11
25.0
 21
324.9999999839420184
 31
-0.0000000000000844
  0
LINE
  5
2E8
  8
S_J_JUNCTION
 10
-17.6776695296648505
 20
127.3223304542698031
 30
-0.0000000000000844
 11
17.6776695296648505
 21
162.6776695135993975
 31
-0.0000000000000844
  0
LINE
  5
2E9
  8
S_J_JUNCTION
 10
-17.6776695135849913
 20
-35.1776695468870528
 30
-0.0000000000000844
 11
17.6776695457447204
 21
0.1776695124426624
 31
-0.0000000000000844
  0
LINE
  5
2EA
  8
S_J_JUNCTION
 10
-17.6776695296648505
 20
77.3223304542698031
 30
-0.0000000000000844
 11
17.6776695296648505
 21
112.677669513599497
 31
-0.0000000000000844
  0
ENDBLK
  5
2EB
  8
0
  0
BLOCK
  8
0
  2
*U31
 70
     1
 10
0.0
 20
0.0
 30
0.0
  3
*U31
  1

  0
TEXT
  5
4DB
  8
S_J_JUNCTION
 10
-155.7046975163974025
 20
-105.3302511378933985
 30
-0.0000000000000369
 40
50.0
  1
JP433
 41
0.7
  7
TSSD_REIN
  0
ENDBLK
  5
4DD
  8
0
  0
BLOCK
  8
0
  2
JP280
 70
     0
 10
0.0
 20
0.0
 30
0.0
  3
JP280
  1

  0
LINE
  5
2F0
  8
S_J_JUNCTION
 10
0.000000000007276
 20
-50.0000000011787122
 30
0.0000000000000111
 11
0.0
 21
230.0000000148939137
 31
-0.0000000000000511
  0
INSERT
  5
2F1
  8
0
  2
*U33
 10
0.0
 20
0.0
 30
0.0
  0
LINE
  5
2F2
  8
S_J_JUNCTION
 10
-25.0
 20
185.0000000148939137
 30
-0.0000000000000533
 11
25.0
 21
185.0000000148939137
 31
-0.0000000000000533
  0
LINE
  5
2F3
  8
S_J_JUNCTION
 10
-17.6776695296648505
 20
27.3223304863786183
 30
-0.0000000000000533
 11
17.6776695296648505
 21
62.6776695457083406
 31
-0.0000000000000533
  0
LINE
  5
2F4
  8
S_J_JUNCTION
 10
-17.6776695296648505
 20
-22.6776695136213711
 30
-0.0000000000000533
 11
17.6776695296648505
 21
12.6776695457083406
 31
-0.0000000000000533
  0
ENDBLK
  5
2F5
  8
0
  0
BLOCK
  8
0
  2
*U33
 70
     1
 10
0.0
 20
0.0
 30
0.0
  3
*U33
  1

  0
TEXT
  5
4E0
  8
S_J_JUNCTION
 10
-155.7046975163974025
 20
-91.1581075532667739
 30
-0.0000000000000058
 40
50.0
  1
JP280
 41
0.7
  7
TSSD_REIN
  0
ENDBLK
  5
4E2
  8
0
  0
BLOCK
  8
0
  2
JP260
 70
     0
 10
0.0
 20
0.0
 30
0.0
  3
JP260
  1

  0
LINE
  5
2FA
  8
S_J_JUNCTION
 10
0.0
 20
-49.999999985113412
 30
0.0000000000000111
 11
0.0
 21
210.0000000149084087
 31
-0.0000000000000466
  0
INSERT
  5
2FB
  8
0
  2
*U35
 10
0.0
 20
0.0
 30
0.0
  0
LINE
  5
2FC
  8
S_J_JUNCTION
 10
-25.0
 20
165.0000000149084087
 30
-0.0000000000000488
 11
25.0
 21
165.0000000149084087
 31
-0.0000000000000488
  0
LINE
  5
2FD
  8
S_J_JUNCTION
 10
-17.6776695296648505
 20
27.3223304864004604
 30
-0.0000000000000488
 11
17.6776695296648505
 21
62.6776695457301614
 31
-0.0000000000000488
  0
LINE
  5
2FE
  8
S_J_JUNCTION
 10
-17.6776695296648505
 20
-22.6776695135995396
 30
-0.0000000000000488
 11
17.6776695296648505
 21
12.6776695457301702
 31
-0.0000000000000488
  0
ENDBLK
  5
2FF
  8
0
  0
BLOCK
  8
0
  2
*U35
 70
     1
 10
0.0
 20
0.0
 30
0.0
  3
*U35
  1

  0
TEXT
  5
4E5
  8
S_J_JUNCTION
 10
-155.7046975163974025
 20
-89.2828016247876945
 30
-0.0000000000000013
 40
50.0
  1
JP260
 41
0.7
  7
TSSD_REIN
  0
ENDBLK
  5
4E7
  8
0
  0
BLOCK
  8
0
  2
C2
 70
     0
 10
0.0
 20
0.0
 30
0.0
  3
C2
  1

  0
LINE
  5
304
  8
0
 10
-0.0000000000145519
 20
1446.2576129422370741
 30
0.0
 11
-0.0000000000291038
 21
3271.2576129422391205
 31
0.0
  0
TEXT
  5
6D8
  8
0
 10
333.9054050548002124
 20
1308.8522286114600774
 30
0.0
 40
300.0
  1
C2
 50
90.0
 41
0.7
  7
TSSD_REIN
  0
ENDBLK
  5
306
  8
0
  0
BLOCK
  8
0
  2
*U37
 70
     1
 10
0.0
 20
0.0
 30
0.0
  3
*U37
  1

  0
TEXT
  5
4EA
  8
0
 10
333.9054050548002124
 20
1308.8522286114600774
 30
0.0
 40
300.0
  1
ZC1
 50
90.0
 41
0.7
  7
TSSD_REIN
  0
ENDBLK
  5
4EC
  8
0
  0
BLOCK
  8
0
  2
JP240
 70
     0
 10
0.0
 20
0.0
 30
0.0
  3
JP240
  1

  0
LINE
  5
309
  8
S_J_JUNCTION
 10
0.0
 20
0.0
 30
0.0
 11
0.0
 21
240.0000000011642101
 31
-0.0000000000000533
  0
INSERT
  5
30A
  8
0
  2
*U39
 10
0.0
 20
0.0
 30
0.0
  0
LINE
  5
30B
  8
S_J_JUNCTION
 10
-25.0
 20
195.0000000011640964
 30
-0.0000000000000555
 11
25.0
 21
195.0000000011640964
 31
-0.0000000000000555
  0
LINE
  5
30C
  8
S_J_JUNCTION
 10
-17.6776695296648505
 20
77.3223304714993134
 30
-0.0000000000000555
 11
17.6776695296648505
 21
112.6776695308289931
 31
-0.0000000000000555
  0
LINE
  5
30D
  8
S_J_JUNCTION
 10
-17.6776695296648505
 20
27.3223304714992992
 30
-0.0000000000000555
 11
17.6776695296648505
 21
62.6776695308290073
 31
-0.0000000000000555
  0
ENDBLK
  5
30E
  8
0
  0
BLOCK
  8
0
  2
*U39
 70
     1
 10
0.0
 20
0.0
 30
0.0
  3
*U39
  1

  0
TEXT
  5
4EF
  8
S_J_JUNCTION
 10
-30.52207651024219
 20
-79.8817313872277595
 30
-0.000000000000008
 40
50.0
  1
JP240
 41
0.7
  7
TSSD_REIN
  0
ENDBLK
  5
4F1
  8
0
  0
ENDSEC
  0
SECTION
  2
ENTITIES
  0
INSERT
  5
37A
  8
S_C_COLUMN_MINOR
  2
C1
 10
464.3444813573402143
 20
1658.3905876183130204
 30
0.0
  0
INSERT
  5
37B
  8
S_C_COLUMN_MINOR
  2
C1
 10
8864.3444813573405554
 20
1658.3905876183130204
 30
0.0
 41
-1.0
  0
INSERT
  5
37C
  8
S_U_COLUMN_MAJOR
  2
U1
 10
1964.3444813573401007
 20
1658.3905876183130204
 30
0.0
  0
INSERT
  5
37D
  8
S_U_COLUMN_MAJOR
  2
U1
 10
7364.3444813573405554
 20
1658.3905876183130204
 30
0.0
 41
-1.0
  0
INSERT
  5
37E
  8
S_U_COLUMN_MAJOR
  2
U2
 10
6164.3444813573432839
 20
1658.3905876183130204
 30
0.0
  0
INSERT
  5
37F
  8
S_B_GIRDER
  2
B1
 10
439.3444813580820778
 20
1938.3905876183000601
 30
0.0
 50
270.0
  0
INSERT
  5
380
  8
S_D_GIRDER
  2
D1
 10
39.3444813573401717
 20
5088.3905876171502314
 30
0.0
 50
270.0
  0
INSERT
  5
381
  8
S_D_GIRDER
  2
D2
 10
1919.3444813573401007
 20
4950.8905876171502314
 30
0.0
 50
270.0
  0
INSERT
  5
384
  8
S_G_TRACK
  2
C100X50
 10
414.3444813573401007
 20
2038.3905876183000601
 30
0.0
 50
90.0
  0
INSERT
  5
392
  8
0_REFERENCE
  2
U2
 10
3164.3444813573401007
 20
1658.3905876183130204
 30
0.0
 41
-1.0
  0
INSERT
  5
3AE
  8
S_C_COLUMN_MINOR
  2
C2
 10
2014.3444813573689771
 20
-1287.8670253239229169
 30
0.0
  0
INSERT
  5
3AF
  8
S_C_COLUMN_MINOR
  2
C2
 10
1914.3444813572809835
 20
-1287.8670253239229169
 30
0.0
 41
-1.0
  0
INSERT
  5
3B0
  8
S_C_COLUMN_MINOR
  2
C2
 10
7414.3444813573687497
 20
-1287.8670253239229169
 30
0.0
  0
INSERT
  5
3B1
  8
S_C_COLUMN_MINOR
  2
C2
 10
7314.3444813572832572
 20
-1287.8670253239229169
 30
0.0
 41
-1.0
  0
INSERT
  5
3B2
  8
S_C_COLUMN_MINOR
  2
C2
 10
514.3444813573402143
 20
-1287.8670253239658905
 30
0.0
  0
INSERT
  5
3B3
  8
S_C_COLUMN_MINOR
  2
C2
 10
8814.3444813573405554
 20
-1287.8670253239658905
 30
0.0
 41
-1.0
  0
INSERT
  5
3B4
  8
S_G_TRACK
  2
C100X50
 10
8914.3444813573405554
 20
2038.3905876183000601
 30
0.0
 41
-1.0
 50
270.0
  0
INSERT
  5
3B5
  8
S_C_COLUMN_MINOR
  2
CN1
 10
7257.5589976407736685
 20
1895.3745840917858914
 30
0.0
 41
-1.0
 50
17.0769577892698514
  0
INSERT
  5
3B6
  8
0_REFERENCE
  2
CN1
 10
2071.1299650739038043
 20
1895.3745840917858914
 30
0.0
 50
342.9230422107302161
  0
ENDSEC
  0
EOF
